<svg width="52" height="52" viewBox="0 0 52 52" fill="none" xmlns="http://www.w3.org/2000/svg">
<path d="M26 0C31.6973 6.79399e-08 37.2369 1.87137 41.7671 5.32637C46.2973 8.78138 49.5672 13.6287 51.0741 19.1232C52.581 24.6176 52.2414 30.4549 50.1077 35.7375C47.9739 41.0202 44.1641 45.4558 39.2639 48.3622C34.3637 51.2687 28.6445 52.4852 22.9856 51.8247C17.3267 51.1641 12.0414 48.6631 7.94236 44.7062C3.84331 40.7493 1.15745 35.5555 0.297725 29.9234C-0.408446 25.2973 0.149563 20.5858 1.88535 16.2796C2.51297 14.7226 4.37809 14.1856 5.85126 14.9906C7.32444 15.7955 7.84156 17.6378 7.26989 19.2162C6.14117 22.3327 5.80239 25.6978 6.30738 29.006C6.96608 33.3212 9.02394 37.3006 12.1646 40.3323C15.3052 43.3641 19.3547 45.2803 23.6904 45.7864C28.0262 46.2925 32.4081 45.3604 36.1625 43.1335C39.917 40.9066 42.836 37.5082 44.4709 33.4607C46.1057 29.4132 46.3659 24.9408 45.2113 20.7311C44.0567 16.5214 41.5514 12.8074 38.0805 10.1602C34.6095 7.51307 30.3652 6.07927 26 6.07927V0Z" fill="#00E959"/>
</svg>
