<svg width="12" height="12" viewBox="0 0 12 12" fill="none" xmlns="http://www.w3.org/2000/svg">
<path fill-rule="evenodd" clip-rule="evenodd" d="M7.30748 0.797505C7.38069 0.838254 7.43814 0.902346 7.47067 0.979557C7.50321 1.05677 7.50895 1.14265 7.48698 1.22351L6.49098 4.87501H10.125C10.1981 4.87501 10.2695 4.89637 10.3306 4.93645C10.3918 4.97654 10.4398 5.03361 10.4689 5.10064C10.498 5.16768 10.5069 5.24175 10.4945 5.31377C10.4821 5.38579 10.4489 5.4526 10.399 5.50601L5.14898 11.131C5.09179 11.1924 5.01567 11.2329 4.93279 11.2459C4.84991 11.2589 4.76505 11.2438 4.69178 11.2029C4.61852 11.162 4.56109 11.0977 4.52867 11.0203C4.49626 10.9429 4.49073 10.8569 4.51298 10.776L5.50898 7.12501H1.87498C1.8019 7.125 1.73041 7.10364 1.6693 7.06356C1.6082 7.02347 1.56014 6.9664 1.53103 6.89937C1.50192 6.83233 1.49303 6.75826 1.50546 6.68624C1.51789 6.61422 1.55109 6.54741 1.60098 6.49401L6.85098 0.869005C6.90816 0.807828 6.98417 0.767552 7.06691 0.754594C7.14964 0.741636 7.23433 0.756742 7.30748 0.797505Z" fill="white"/>
</svg>
