<svg width="21" height="21" viewBox="0 0 21 21" fill="none" xmlns="http://www.w3.org/2000/svg">
<g clip-path="url(#clip0_6021_10673)">
<path fill-rule="evenodd" clip-rule="evenodd" d="M11.8152 7.38813L9.78058 9.38582L8.82556 10.3224L7.76905 11.3558L5.03317 14.041C3.99511 13.0859 2.38958 12.0802 2.38958 12.0802L1.82672 12.6338L4.15659 15.0098L1.73444 17.9671C1.36997 17.838 0.945516 17.9164 0.650245 18.207C0.23502 18.613 0.230406 19.2774 0.636404 19.688C1.0424 20.1032 1.70676 20.1079 2.11737 19.7019C2.41264 19.4112 2.5003 18.9914 2.37574 18.6223L5.3792 16.2555L7.70907 18.6315L8.27193 18.0779C8.27193 18.0779 7.29384 16.4539 6.35728 15.3974L9.09315 12.7122L10.1497 11.6788L11.1047 10.7422L13.1393 8.74453L14.0943 7.80797L15.1508 6.77452L18.1404 3.84026V3.83565L18.1451 3.83103L18.1497 3.82642L18.1543 3.81719L18.1589 3.80797L18.1681 3.79874L18.1773 3.78951L18.1866 3.77567L18.1958 3.76183L18.2096 3.74799L18.2235 3.72953L18.2373 3.71108L18.2512 3.69263L18.2696 3.66956L18.2881 3.64649L18.3065 3.62342L18.325 3.59574L18.3434 3.56806L18.3619 3.54038L18.385 3.51269L18.408 3.4804L18.4311 3.4481L18.4542 3.41581L18.4772 3.3789L18.5003 3.34199L18.5234 3.30508L18.5511 3.26817L18.5787 3.22665L18.6064 3.18513L18.6341 3.14361L18.6618 3.10208L18.6895 3.05595L18.7171 3.00981L18.7448 2.96368L18.7725 2.91754L18.8002 2.86679L18.8325 2.81604L18.8648 2.76529L18.8971 2.71454C18.9063 2.69609 18.9155 2.67763 18.9294 2.65918L18.9617 2.60381C18.9709 2.58536 18.9847 2.5669 18.994 2.54845C19.0032 2.53 19.017 2.51154 19.0263 2.49309C19.0355 2.47463 19.0493 2.45618 19.0585 2.43311C19.0678 2.41466 19.0816 2.39159 19.0908 2.37313C19.1001 2.35468 19.1139 2.33161 19.1231 2.31316C19.1324 2.2947 19.1462 2.27163 19.1554 2.25318C19.1647 2.23472 19.1785 2.21166 19.1877 2.18859C19.197 2.16552 19.2108 2.14707 19.22 2.124C19.2293 2.10093 19.2431 2.08248 19.2523 2.05941C19.2615 2.03634 19.2754 2.01789 19.2846 1.99482C19.2938 1.97175 19.3077 1.94868 19.3169 1.93023C19.3261 1.90716 19.34 1.88409 19.3492 1.86102C19.3584 1.83795 19.3723 1.81489 19.3815 1.79182C19.3907 1.76875 19.4046 1.74568 19.4138 1.72261C19.423 1.69955 19.4323 1.67648 19.4461 1.65341C19.4553 1.63034 19.4645 1.60727 19.4784 1.58421C19.4876 1.56114 19.4968 1.53807 19.5107 1.51039C19.5199 1.48732 19.5291 1.45964 19.543 1.43657C19.5522 1.4135 19.5614 1.38582 19.5707 1.36275C19.5799 1.33968 19.5891 1.312 19.5983 1.28893C19.6076 1.26587 19.6168 1.23819 19.626 1.21512C19.6352 1.18744 19.6445 1.16437 19.6537 1.13669L19.5522 1.03519C19.5245 1.04441 19.5015 1.05364 19.4738 1.06287C19.4461 1.0721 19.423 1.08132 19.3953 1.09055C19.3677 1.09978 19.3446 1.109 19.3215 1.11823C19.2985 1.12746 19.2708 1.13669 19.2477 1.14591C19.2246 1.15514 19.197 1.16437 19.1739 1.17359C19.1508 1.18282 19.1231 1.19205 19.1001 1.20128C19.077 1.2105 19.0539 1.21973 19.0263 1.22896L18.957 1.25664L18.8878 1.28432C18.8648 1.29355 18.8417 1.30278 18.8186 1.31662C18.7956 1.32584 18.7725 1.33507 18.7494 1.34891C18.7264 1.35814 18.7033 1.36737 18.6802 1.38121C18.6572 1.39043 18.6341 1.39966 18.6156 1.4135C18.5926 1.42273 18.5741 1.43196 18.5511 1.4458C18.528 1.45502 18.5095 1.46425 18.4865 1.47809C18.4634 1.48732 18.4449 1.49655 18.4219 1.51039C18.3988 1.51962 18.3803 1.52884 18.3619 1.54268C18.3434 1.55191 18.3204 1.56114 18.3019 1.57498C18.2835 1.58421 18.2604 1.59343 18.2419 1.60727C18.2235 1.6165 18.2004 1.62573 18.182 1.63957C18.1635 1.6488 18.1451 1.65802 18.122 1.67186L18.0666 1.70416L18.0113 1.73645C17.9928 1.74568 17.9744 1.75491 17.9559 1.76875L17.9005 1.79643C17.8821 1.80566 17.8636 1.81489 17.8498 1.82411L17.799 1.8518C17.7806 1.86102 17.7667 1.87025 17.7483 1.87948L17.6975 1.90716L17.6514 1.93484C17.6376 1.94407 17.6191 1.95329 17.6053 1.96252L17.5591 1.9902L17.513 2.01789L17.4715 2.04557L17.4299 2.07325L17.3884 2.10093L17.3515 2.124L17.3146 2.14707L17.2777 2.17013L17.2408 2.1932L17.2085 2.21627L17.1762 2.23934L17.1439 2.26241L17.1116 2.28086L17.0839 2.29932L17.0562 2.31777L17.0286 2.33622L17.0055 2.35468L16.9824 2.37313L16.9594 2.38697L16.9409 2.40081L16.9224 2.41466L16.904 2.4285L16.8902 2.44234L16.8763 2.45156L16.8625 2.46079L16.8486 2.47002L16.8394 2.47925L16.8302 2.48386L16.8209 2.48847L16.8163 2.49309L16.8117 2.4977H16.8071L13.8175 5.43196L12.761 6.46541L11.806 7.40197L11.8152 7.38813ZM5.62833 14.7976L5.63756 14.816C5.62833 14.816 5.62372 14.8114 5.61449 14.8114C5.61449 14.8022 5.60988 14.7976 5.60988 14.7884L5.62833 14.7976Z" fill="#EA610C"/>
</g>
<defs>
<clipPath id="clip0_6021_10673">
<rect width="20" height="20" fill="white" transform="matrix(1 0 0 -1 0.0458984 20.6245)"/>
</clipPath>
</defs>
</svg>
