<svg width="12" height="12" viewBox="0 0 12 12" fill="none" xmlns="http://www.w3.org/2000/svg">
<path d="M10.0537 0H1.94629C0.456088 0 -0.48416 1.60414 0.260942 2.90694L5.26377 11.5746C5.59197 12.1418 6.40803 12.1418 6.73623 11.5746L11.7391 2.90694C12.4842 1.60414 11.5439 0 10.0537 0ZM5.2549 8.96898L4.16386 6.85968L1.53826 2.16248C1.41408 1.94092 1.49391 1.66617 1.70679 1.53324C1.77776 1.48892 1.85759 1.4712 1.93742 1.4712H5.24603L5.2549 8.96898ZM10.4529 2.16248L7.82727 6.85968L6.73623 8.96898V1.48006H10.0537C10.4174 1.4712 10.6303 1.86115 10.4529 2.16248Z" fill="white"/>
</svg>
