<svg width="21" height="21" viewBox="0 0 21 21" fill="none" xmlns="http://www.w3.org/2000/svg">
<path d="M4.11584 4.6321H16.6158C16.7619 4.63203 16.9077 4.64129 17.0526 4.65983C17.0035 4.31521 16.8851 3.9841 16.7046 3.68647C16.5241 3.38883 16.2851 3.13084 16.0022 2.92804C15.7193 2.72523 15.3982 2.58183 15.0584 2.50646C14.7185 2.4311 14.367 2.42533 14.0248 2.48952L3.74475 4.2446H3.73303C3.08775 4.36799 2.51392 4.73308 2.12874 5.2653C2.70905 4.85254 3.40371 4.63118 4.11584 4.6321ZM16.6158 5.5696H4.11584C3.45303 5.57032 2.81756 5.83395 2.34888 6.30263C1.88019 6.77131 1.61657 7.40678 1.61584 8.0696V15.5696C1.61657 16.2324 1.88019 16.8679 2.34888 17.3366C2.81756 17.8052 3.45303 18.0689 4.11584 18.0696H16.6158C17.2787 18.0689 17.9141 17.8052 18.3828 17.3366C18.8515 16.8679 19.1151 16.2324 19.1158 15.5696V8.0696C19.1151 7.40678 18.8515 6.77131 18.3828 6.30263C17.9141 5.83395 17.2787 5.57032 16.6158 5.5696ZM14.7604 13.0696C14.5131 13.0696 14.2715 12.9963 14.0659 12.8589C13.8604 12.7216 13.7001 12.5264 13.6055 12.298C13.5109 12.0695 13.4862 11.8182 13.5344 11.5757C13.5826 11.3333 13.7017 11.1105 13.8765 10.9357C14.0513 10.7609 14.274 10.6418 14.5165 10.5936C14.759 10.5454 15.0103 10.5701 15.2387 10.6647C15.4671 10.7594 15.6624 10.9196 15.7997 11.1251C15.9371 11.3307 16.0104 11.5724 16.0104 11.8196C16.0104 12.1511 15.8787 12.4691 15.6443 12.7035C15.4098 12.9379 15.0919 13.0696 14.7604 13.0696Z" fill="white"/>
<path d="M1.63538 10.7061V6.81934C1.63538 5.97285 2.10413 4.55371 3.73108 4.24629C5.11194 3.9873 6.47913 3.9873 6.47913 3.9873C6.47913 3.9873 7.37756 4.6123 6.63538 4.6123C5.89319 4.6123 5.91272 5.56934 6.63538 5.56934C7.35803 5.56934 6.63538 6.4873 6.63538 6.4873L3.72522 9.78809L1.63538 10.7061Z" fill="white"/>
</svg>
