<svg width="222" height="73" viewBox="0 0 222 73" fill="none" xmlns="http://www.w3.org/2000/svg">
<path d="M6.33958 2.23098C40.843 1.24544 76.5445 0.863872 111.044 0.978324C145.544 1.09278 181.442 1.81188 216.038 2.92665C217.138 3.1303 219.532 4.93826 220.028 6.03991C220.225 7.10724 220.388 8.20777 220.517 9.34154C220.516 9.64154 215.818 9.22597 211.613 10.612C213.713 10.619 220.713 10.7422 220.711 11.1422C221.294 16.2442 221.474 22.3448 221.553 28.6451C221.253 28.5441 216.854 28.3295 213.249 29.8175C214.449 29.8215 221.048 30.0434 221.448 30.1448C221.404 43.3447 220.358 57.4413 219.126 66.9372C218.522 68.0353 216.316 69.8279 215.315 70.3246C150.207 72.5086 60.7084 72.0117 6.91598 69.6333C5.61798 69.0289 3.52429 67.122 3.12695 66.3207C2.24852 59.8177 1.57539 51.7154 1.20359 43.2142C1.20525 42.7142 2.60857 41.7188 6.3112 40.9311C4.71187 40.7258 1.11089 41.0138 1.11222 40.6138C1.02516 36.7135 0.9381 32.8132 0.951038 28.9133C0.952365 28.5133 3.85301 28.3229 4.45301 28.3249C3.45401 28.0216 0.957341 27.0133 0.958668 26.6133C1.08488 18.7136 1.50942 11.315 2.42966 5.21803C2.93297 4.21969 5.13826 2.627 6.33958 2.23098Z" fill="url(#paint0_linear_6021_1518)"/>
<path d="M2.31317 40.3178C5.91315 40.3298 9.41247 40.5414 12.8111 40.9527C12.1111 40.9503 11.3111 40.9477 10.6111 40.9454C7.91015 41.2364 4.10818 41.8238 2.50454 42.9185C2.97966 50.4201 3.8561 57.523 4.83652 63.4263C5.3342 64.128 7.52821 65.9353 8.72655 66.4392C76.7212 68.1648 145.021 68.3914 213.025 67.117C214.127 66.7206 216.332 65.028 217.035 64.1303C218.566 54.8353 219.907 42.4397 220.248 30.2408C217.048 30.2301 213.914 30.2531 210.847 30.3096C211.381 30.178 211.915 30.0131 212.449 29.8149C215.653 28.7255 217.454 28.4315 220.254 28.3407C220.373 22.5411 220.293 16.7408 219.91 11.3395C214.711 11.1223 210.011 11.2067 205.509 11.6918C210.715 10.109 214.718 9.12229 219.718 9.03888C219.654 8.17199 219.591 7.3051 219.527 6.43822C219.13 5.3369 216.836 3.62927 215.737 3.32563C146.044 1.09441 76.2445 0.862851 6.53821 2.63161C5.33656 3.12763 3.23126 4.72066 2.72795 5.719C2.00738 11.9166 1.68449 18.8156 1.76061 26.0159C3.95363 28.1232 11.6536 28.1487 16.2499 29.264C11.6496 29.3487 6.94897 29.5331 1.84801 29.8162C1.9364 33.3165 2.12478 36.8172 2.31317 40.3178Z" fill="url(#paint1_radial_6021_1518)"/>
<g style="mix-blend-mode:multiply" opacity="0.5">
<path fill-rule="evenodd" clip-rule="evenodd" d="M220.101 14.2402C205.607 12.4921 187.995 16.0337 169.48 20.5723C147.162 25.9983 136.156 27.5618 113.882 19.7879C107.29 17.466 95.108 11.9255 94.2249 6.82259C93.9309 5.0216 94.4365 3.32325 95.5425 1.52691C97.1425 1.53222 98.7758 1.53764 100.442 1.54317C99.4372 3.13984 99.3322 4.63951 99.5272 6.14016C99.9202 8.24148 101.913 10.4481 105.905 12.9613C116.883 19.4978 128.973 22.5379 141.373 22.6791C150.873 22.7106 159.679 20.8398 168.985 18.9707C183.194 16.2178 193.706 12.7526 205.91 11.5931L206.01 11.5935C206.276 11.5943 206.543 11.5619 206.81 11.4961C207.077 11.497 207.343 11.4979 207.61 11.4988C207.877 11.433 208.177 11.4006 208.51 11.4017C208.777 11.4026 209.044 11.4035 209.31 11.4044C209.577 11.3386 209.877 11.3063 210.211 11.3074C210.477 11.3083 210.744 11.3091 211.011 11.31L211.111 11.3104C211.377 11.3112 211.644 11.2788 211.911 11.213C212.244 11.2141 212.544 11.2151 212.811 11.216C213.144 11.2171 213.444 11.2181 213.711 11.219C213.978 11.2199 214.278 11.2209 214.611 11.222C214.944 11.2231 215.244 11.2241 215.511 11.225C215.844 11.2261 216.144 11.2271 216.411 11.228C216.744 11.2291 217.078 11.2302 217.411 11.2313C217.677 11.2988 217.977 11.3331 218.311 11.3342C218.644 11.3353 218.944 11.3363 219.211 11.3372L219.311 11.3376C219.511 11.3382 219.711 11.3389 219.911 11.3395C219.974 12.3398 220.037 13.3067 220.101 14.2402ZM180.816 9.70984C176.913 10.5969 172.31 11.5816 167.305 12.8651L167.005 12.8641C162.401 14.0488 157.497 15.2325 152.594 16.1163C148.892 16.804 145.19 17.2917 141.59 17.3798C137.89 17.5675 134.391 17.2559 130.993 16.5446C127.096 15.6317 123.002 13.8181 119.609 11.8068C116.216 9.69555 113.524 7.18662 112.431 4.88298C112.299 4.61587 112.2 4.34886 112.134 4.08197C111.937 3.28131 111.973 2.41475 112.243 1.48231C113.176 1.48541 114.076 1.48839 114.943 1.49127C113.931 5.08793 116.822 7.69756 121.013 10.4115C124.007 12.4214 127.899 14.6343 131.397 15.446C134.294 16.1556 137.494 16.3662 140.694 16.2768C143.994 16.1877 147.296 15.6987 150.698 15.01C159.304 13.3385 168.114 10.1677 176.721 8.09627C181.525 7.0122 185.328 6.12479 187.431 5.23176C190.034 4.24039 190.037 3.34042 188.939 2.63678C191.806 2.71295 194.639 2.789 197.439 2.86496C197.371 3.26473 197.203 3.66419 196.935 4.0633C196.232 4.96098 194.828 5.95631 192.626 6.74901C190.223 7.64104 186.12 8.52743 180.816 9.70984ZM220.369 23.9411C199.072 23.0705 183.364 25.3184 168.157 27.468C161.054 28.4444 154.05 29.4212 146.748 30.0969C134.044 31.2548 128.142 31.7352 115.553 28.4934C109.358 26.9729 97.9698 23.4351 88.1825 19.6026C81.3915 16.8801 75.4011 13.9602 72.3101 11.2499C71.6121 10.6476 71.0148 9.8456 70.6174 9.04427C70.1198 8.34262 69.9224 7.54197 69.8251 6.74164C69.8277 5.94165 70.0307 5.04232 70.3334 4.24332C70.736 3.44465 71.2387 2.6463 71.9406 2.04862C72.0744 1.91573 72.2416 1.74962 72.4423 1.55029C74.0423 1.55559 75.6756 1.56101 77.3423 1.56654C76.6738 2.09766 76.139 2.56255 75.7376 2.96122C73.4307 5.05358 73.7211 7.95456 76.1144 9.96251C78.8064 12.3715 83.6958 15.5877 89.9878 18.0086C123.444 31.3196 134.445 30.8562 167.861 26.067C183.069 23.9174 198.98 20.6702 220.277 21.5408C220.274 22.3408 220.305 23.1409 220.369 23.9411ZM220.248 30.2408C220.178 31.1739 220.142 32.0738 220.139 32.9404C199.941 32.3734 180.433 34.6087 160.725 36.9434C150.021 38.2079 137.515 40.1664 126.918 39.2312C115.121 38.1921 101.439 32.6467 90.3523 28.7099C83.4603 26.287 76.4686 23.7638 69.4766 21.3405C62.0846 18.916 42.6056 12.5514 38.6246 6.83812C37.5299 5.23448 37.2352 3.63351 38.3405 2.03716C40.8074 1.97868 43.2742 1.92018 45.7411 1.8617C41.9315 4.74908 43.3216 7.75373 52.8069 12.1852C59.3966 15.3071 67.6882 17.8346 71.4839 19.1472C87.6659 24.6009 111.73 35.3808 127.122 37.8319C137.417 39.3661 149.926 36.8075 160.43 35.5424C177.237 33.5981 193.946 30.8535 210.948 30.3099C211.281 30.311 211.614 30.3121 211.948 30.3132C212.281 30.3143 212.614 30.3154 212.948 30.3166L213.048 30.3169C213.315 30.2511 213.615 30.2188 213.948 30.2199C214.681 30.2223 215.381 30.2246 216.048 30.2269C216.381 30.228 216.715 30.2291 217.048 30.2302C217.381 30.2313 217.715 30.2324 218.048 30.2335C218.381 30.2346 218.715 30.2357 219.048 30.2368L220.248 30.2408ZM219.819 38.9394C211.819 38.9129 203.719 38.986 195.717 39.4595C181.715 40.113 168.006 42.7675 154.201 44.4218C139.995 46.1746 130.194 46.3421 120.498 45.0099C110.803 43.5778 101.312 40.7463 87.9264 36.5018C71.7434 31.3481 55.2595 26.4934 38.7738 22.1387C27.8832 19.3026 13.1892 17.4538 3.60387 13.022C3.0712 12.8202 2.57198 12.5852 2.1062 12.317C2.24351 11.1175 2.3475 9.91779 2.41814 8.71802C3.11515 9.62033 4.41183 10.6247 6.50883 11.5316C15.5952 15.6618 29.7891 17.5089 40.0804 20.143C55.9668 24.2958 71.8511 29.0485 87.4347 34.0002C100.221 38.0426 109.11 41.4721 120.803 43.5109C147.988 48.1011 170.12 38.4745 195.725 37.1595C203.926 36.7867 211.928 36.3132 220.028 36.2401C219.958 37.1065 219.889 38.0063 219.819 38.9394ZM1.84815 29.8162C2.11481 29.8171 2.34814 29.8179 2.54814 29.8186C2.88169 29.753 3.21514 29.7208 3.54847 29.7219L3.64847 29.7222C3.91513 29.7231 4.21524 29.6908 4.54879 29.6252C4.88213 29.6263 5.21546 29.6274 5.54879 29.6285L5.64879 29.6288C5.91567 29.5631 6.21578 29.5307 6.54911 29.5319C6.88245 29.533 7.21578 29.5341 7.54911 29.5352C7.88266 29.4696 8.2161 29.4374 8.54944 29.4385C8.8161 29.4394 9.1161 29.4404 9.44943 29.4415C9.78276 29.4426 10.1162 29.4103 10.4498 29.3448C10.7831 29.3459 11.0831 29.3469 11.3498 29.3478L11.4498 29.3481C11.7164 29.349 12.0164 29.35 12.3497 29.3511C12.6831 29.3522 12.9832 29.3198 13.2501 29.2541C13.5834 29.2552 13.9167 29.2563 14.2501 29.2574C14.5167 29.2583 14.8167 29.2593 15.1501 29.2604C15.4834 29.2615 15.7834 29.2625 16.0501 29.2634C28.1503 29.2035 39.3459 30.5407 53.5309 35.0877C60.6236 37.3113 66.5183 38.9308 73.9142 40.1554C80.8109 41.1783 87.2055 42.7995 94.0002 44.422C105.391 47.2598 116.782 49.9977 128.781 50.3375C142.079 50.7816 156.99 47.731 170.295 46.0752C186.201 44.2279 202.008 42.3803 219.608 42.2387C219.539 43.0385 219.469 43.8383 219.4 44.6381C202 44.7803 186.293 46.7282 170.587 48.5761C157.082 50.1314 142.074 52.3816 128.675 51.9371C107.677 51.3675 93.0952 45.919 73.6053 42.8544C66.1093 41.6295 60.1146 40.0096 52.9223 37.6857C33.6427 31.5217 19.9457 30.5763 1.94251 31.5166C1.87761 30.983 1.84616 30.4162 1.84815 29.8162ZM2.31364 40.2178C2.31519 39.7512 2.2834 39.2844 2.21828 38.8175C19.6169 39.2752 38.0035 43.3363 53.9961 45.5893C74.6864 48.558 97.2716 53.0329 116.667 54.5973C132.662 55.8504 153.974 52.321 170.481 50.2758C186.388 48.3285 201.894 46.38 219.294 46.4377C219.225 47.2375 219.122 48.0371 218.986 48.8367C201.886 48.88 186.48 50.7289 170.773 52.6768C165.571 53.3595 160.269 53.9419 155.067 54.5247C142.562 55.8832 129.158 57.2387 116.461 56.1966C97.0663 54.6323 74.4768 51.4573 53.7865 48.4887C38.0939 46.2366 25.8065 42.3958 12.8113 40.9527C12.5448 40.8851 12.2783 40.8509 12.0116 40.85C11.6118 40.782 11.2453 40.7475 10.9119 40.7464C10.5122 40.6784 10.1456 40.6438 9.81228 40.6427C9.47917 40.5749 9.1126 40.5404 8.71261 40.5391C8.3795 40.4713 8.01294 40.4368 7.61295 40.4354C7.27961 40.4343 6.91306 40.3998 6.51329 40.3318C6.17995 40.3307 5.81329 40.3295 5.41329 40.3281C5.0133 40.3268 4.64663 40.3256 4.3133 40.3245C3.91352 40.2565 3.54696 40.2219 3.21363 40.2208C2.8803 40.2197 2.58031 40.2187 2.31364 40.2178ZM2.98544 48.7201C9.58607 48.542 16.8854 48.7662 25.1817 49.8938C28.2803 50.304 31.479 50.7147 34.6783 50.9253C43.1766 51.4535 55.7692 53.6953 65.5685 53.9278C89.4677 54.207 106.847 60.4648 127.849 59.9344C139.15 59.6719 150.355 58.2091 161.46 56.7459C179.668 54.3063 199.578 51.3723 218.88 50.7364C218.743 51.6693 218.641 52.5689 218.571 53.4353C199.569 53.8723 180.562 56.2093 161.754 58.3469C150.45 59.6094 139.246 60.8722 127.845 61.1344C117.044 61.3986 108.747 60.371 97.7521 58.9346C94.0534 58.5223 90.0551 58.009 85.4568 57.4938C78.7595 56.6715 72.1608 56.2497 65.4615 56.0274C48.8633 55.4724 30.7767 51.4123 14.2791 50.6576C10.3798 50.4447 6.67944 50.5324 3.1788 50.7208C3.11434 50.0539 3.04989 49.387 2.98544 48.7201ZM3.9569 57.3234C12.5575 57.1519 19.7565 57.4758 29.0561 57.6067C36.4561 57.6312 43.8557 57.7558 51.2563 57.5803C66.5569 57.4311 79.0505 59.3725 94.2448 61.1229C104.141 62.3558 114.238 63.1893 124.338 63.3228C152.337 63.7157 187.159 57.0312 218.264 55.4343C218.128 56.4339 217.991 57.4334 217.854 58.433C202.252 59.0812 187.647 60.5328 172.742 61.9834C157.037 63.4313 140.031 65.4749 124.231 65.2224C114.132 65.0889 104.035 63.9554 94.0395 62.7223C78.8452 60.9719 66.3483 60.0304 51.1477 60.18C43.6474 60.2551 36.3468 60.4308 28.8475 60.206C19.5489 59.7751 12.7515 58.9526 4.15126 59.0241C4.08636 58.4905 4.02158 57.9236 3.9569 57.3234ZM8.72669 66.4393C8.02769 66.137 7.13002 65.434 6.23201 64.831C26.0365 63.4967 45.6401 62.4617 65.035 64.0261C75.9323 64.8622 86.8269 66.4984 97.7225 67.8345C93.1895 67.7528 88.6229 67.7043 84.023 67.6891C60.0327 64.7095 38.5305 65.3381 17.426 66.6681C14.5595 66.5919 11.6598 66.5157 8.72669 66.4393ZM159.723 67.7402C167.726 66.9667 175.629 65.993 183.333 64.9185C195.038 63.3573 206.342 62.2948 217.342 62.2313C217.206 62.8975 217.104 63.5305 217.035 64.1303C216.734 64.5293 216.133 65.0273 215.531 65.6253C206.229 65.9945 197.127 66.6643 188.024 67.5341C178.624 67.6362 169.19 67.7049 159.723 67.7402ZM145.812 10.6937C144.478 10.956 143.111 11.1514 141.71 11.2801C140.443 11.4093 139.177 11.4384 137.91 11.3675C136.71 11.3636 135.477 11.2594 134.211 11.0552C133.412 10.8526 132.646 10.5834 131.914 10.2476C131.182 9.91186 130.483 9.54287 129.817 9.14066C129.152 8.67179 128.521 8.13635 127.923 7.53436C127.324 7.06571 126.826 6.53074 126.428 5.92942C126.03 5.32809 125.632 4.62675 125.434 4.02609C125.137 3.3251 124.939 2.52445 124.942 1.82446C124.942 1.75779 124.942 1.65777 124.943 1.52444C125.476 1.52621 126.009 1.56132 126.542 1.62976C126.475 1.6962 126.442 1.79611 126.441 1.92944C126.438 3.02943 126.934 4.03108 127.532 4.83307C129.622 7.84002 133.018 9.05128 136.717 9.16355C140.217 9.27516 145.819 8.59376 148.627 6.40306C150.732 4.71003 150.838 3.11037 149.642 1.80639C151.575 1.87947 153.475 1.91912 155.342 1.92531C155.342 1.92531 155.341 1.95865 155.341 2.02531C155.539 2.62597 155.537 3.32596 155.335 3.9253C155.132 4.72463 154.73 5.4233 154.328 5.92197C153.726 6.71997 153.023 7.41765 152.221 8.015C151.486 8.61256 150.684 9.07657 149.817 9.40702C148.548 9.93615 147.213 10.365 145.812 10.6937Z" fill="#B7805C"/>
</g>
<path style="mix-blend-mode:multiply" opacity="0.7" d="M69.4766 21.3405C62.0846 18.916 42.6056 12.5513 38.6245 6.83808C37.5299 5.23444 37.2352 3.63347 38.3405 2.03713C27.7399 2.20196 17.1392 2.40011 6.53833 2.63161C5.33668 3.12763 3.23138 4.72066 2.72806 5.71899C2.59141 6.71854 2.4881 7.71821 2.41812 8.71798C3.11513 9.6203 4.4118 10.6246 6.5088 11.5316C15.5952 15.6618 29.6891 17.5085 40.0804 20.143C55.9664 24.3957 71.751 29.0481 87.4347 34.0002C100.221 38.0426 109.01 41.5718 120.803 43.5109C147.988 48.1011 170.12 38.4745 195.724 37.2594C203.826 36.7863 211.928 36.3132 219.928 36.2397C219.998 35.1066 220.069 34.0068 220.139 32.9404C199.941 32.3734 180.433 34.6087 160.725 36.9433C150.021 38.2078 137.515 40.1663 126.918 39.2312C115.121 38.192 101.439 32.6466 90.3523 28.7098C83.4603 26.2869 76.4686 23.7637 69.4766 21.3405Z" fill="url(#paint2_radial_6021_1518)"/>
<path style="mix-blend-mode:multiply" d="M127.531 4.93304C129.522 7.83966 133.018 9.05125 136.717 9.16352C140.217 9.27513 145.819 8.59373 148.526 6.4027C150.732 4.71 150.737 3.21001 149.642 1.80637C141.909 1.71404 134.175 1.65505 126.442 1.62939C126.442 1.76273 126.441 1.89605 126.441 2.02939C126.437 3.02938 126.934 4.03106 127.531 4.93304Z" fill="url(#paint3_radial_6021_1518)"/>
<path style="mix-blend-mode:multiply" opacity="0.7" d="M127.922 7.63436C127.324 7.09904 126.826 6.53073 126.428 5.92941C126.03 5.32809 125.632 4.72674 125.334 4.02575C125.137 3.32509 124.939 2.52445 124.942 1.82445C124.942 1.75778 124.942 1.6911 124.942 1.62444C121.609 1.54671 118.276 1.50232 114.943 1.49126C113.931 5.08792 116.822 7.69755 121.013 10.4115C124.006 12.4214 127.899 14.6343 131.396 15.4459C134.294 16.1556 137.493 16.3662 140.694 16.2768C143.994 16.1877 147.296 15.6987 150.698 15.01C159.303 13.3385 168.114 10.1677 176.721 8.09627C181.525 7.0122 185.328 6.12478 187.431 5.23175C190.034 4.24039 190.037 3.34041 188.939 2.63677C177.74 2.33295 166.541 2.09579 155.341 1.9253C155.341 1.9253 155.341 1.95864 155.341 2.02531C155.539 2.62597 155.537 3.32596 155.334 4.02529C155.132 4.72463 154.73 5.4233 154.228 6.02163C153.692 6.75319 153.023 7.41765 152.221 8.01499C151.486 8.61255 150.684 9.07656 149.816 9.40701C148.481 9.93592 147.147 10.3648 145.812 10.6937C144.411 10.9557 143.044 11.1512 141.71 11.2801C140.443 11.4093 139.176 11.4717 137.91 11.4675C136.643 11.3967 135.41 11.2592 134.211 11.0552C133.412 10.8526 132.646 10.5834 131.914 10.2476C131.181 9.91185 130.483 9.54286 129.817 9.14065C129.152 8.67178 128.52 8.16968 127.922 7.63436Z" fill="url(#paint4_radial_6021_1518)"/>
<path style="mix-blend-mode:multiply" d="M53.7864 48.4887C38.0938 46.2366 25.8065 42.3958 12.8112 40.9527C12.0112 40.95 11.3112 40.9477 10.6112 40.9454C7.9102 41.2364 4.10824 41.8238 2.5046 42.9185C2.63151 44.8523 2.79177 46.7861 2.98535 48.7201C9.58598 48.542 16.7849 48.8659 25.0816 49.8934C28.2802 50.3041 31.4789 50.7147 34.6782 50.9253C43.1765 51.4535 55.6688 53.7949 65.5684 53.9278C89.4673 54.3071 106.847 60.4648 127.849 59.9344C139.15 59.6719 150.355 58.2091 161.46 56.7459C179.668 54.3063 199.578 51.3723 218.78 50.736C218.848 50.1363 218.917 49.5031 218.986 48.8367C201.786 48.8796 186.48 50.7289 170.773 52.6768C165.571 53.3595 160.269 54.0419 155.067 54.6247C142.562 55.9832 129.058 57.2384 116.461 56.1966C97.0663 54.6323 74.4767 51.4573 53.7864 48.4887Z" fill="url(#paint5_radial_6021_1518)"/>
<path style="mix-blend-mode:screen" d="M1.76071 26.0159C3.95373 28.1232 11.6537 28.1487 16.25 29.264C22.75 29.2855 28.949 29.6061 35.4456 30.6277C32.4476 30.0177 29.5493 29.5081 25.7506 29.0955C18.0537 28.17 12.353 28.351 5.16368 25.1272C4.46468 24.8249 3.86601 24.4229 3.46767 23.9216C1.97465 21.8166 3.6972 15.0223 7.59651 15.2352C8.59651 15.2385 9.49584 15.4415 10.3955 15.5445C7.89784 14.8362 5.6005 14.0286 3.6035 13.1219C3.07106 12.8535 2.57183 12.6185 2.10583 12.417C1.89157 16.7163 1.77631 21.3159 1.76071 26.0159ZM2.21825 38.8175C11.8175 39.0493 21.7128 40.4822 31.4078 42.0144C23.5145 39.9882 12.9182 38.853 7.0222 37.6334C3.42488 36.8215 3.83748 33.0228 5.93946 32.4298C10.5437 31.1451 19.5424 31.5749 26.5413 31.8981C18.644 31.0719 10.7441 31.0457 1.84247 31.5162C1.96762 33.9833 2.09288 36.4171 2.21825 38.8175ZM2.9854 48.7201C9.58603 48.542 16.785 48.8659 25.0816 49.8934C28.2803 50.304 31.4789 50.7146 34.6783 50.9252C35.6114 50.995 36.611 51.0983 37.6772 51.2352C30.1806 50.2103 22.7836 49.2858 15.2867 48.3609C13.0877 48.0536 9.48802 47.9417 7.39002 47.3347C5.89136 46.9297 5.60032 44.2288 6.10131 43.9304C9.60726 42.142 18.5062 42.4715 22.1049 42.8835C24.7039 43.1921 27.3029 43.5007 30.0015 43.9097C24.1055 42.6901 18.5092 41.5716 12.8112 40.9527C12.1112 40.9503 11.3112 40.9477 10.6112 40.9454C7.91025 41.2364 4.10829 41.8238 2.50465 42.9185C2.63157 44.8522 2.79182 46.7861 2.9854 48.7201ZM3.95687 57.3234C10.3572 57.2446 15.9568 57.3632 22.2564 57.4841C16.1578 57.0638 9.05982 56.4403 8.06215 55.737C7.26415 55.1343 8.57277 52.5387 9.87475 51.943C12.3784 50.8513 16.378 50.9645 19.7777 51.0758C17.9117 50.8696 16.0788 50.7302 14.279 50.6576C10.3794 50.5446 6.67941 50.5324 3.17876 50.7207C3.43769 53.0549 3.69706 55.2558 3.95687 57.3234ZM22.6485 59.8854C16.2498 59.4642 10.6512 59.0456 4.15089 59.124C4.41269 60.5915 4.64127 62.0257 4.83663 63.4263C5.03563 63.727 5.63397 64.229 6.23198 64.831C11.2999 64.4478 16.3344 64.1311 21.3352 63.8811C16.9352 63.8665 12.2356 63.7509 10.3353 63.8446C9.93527 63.8432 8.23727 63.2376 7.73893 62.7359C7.2406 62.2343 7.44491 60.935 7.84623 60.5363C8.54855 59.8386 15.7488 59.7625 22.6485 59.8854ZM36.5831 19.3314C27.8904 17.1025 16.0998 14.2634 11.4078 11.8478C8.5131 10.2382 9.32902 5.4409 11.4313 4.74787C15.7363 3.26214 25.9385 2.596 32.8402 2.11889C24.0395 2.2897 15.2723 2.46059 6.53832 2.63162C5.33667 3.12763 3.23137 4.72066 2.72805 5.719C2.5914 6.71855 2.48809 7.71821 2.41811 8.71799C3.11512 9.6203 4.41179 10.6246 6.50879 11.5316C14.5965 15.2584 26.6904 17.0986 36.5831 19.3314Z" fill="url(#paint6_linear_6021_1518)"/>
<g style="mix-blend-mode:screen" opacity="0.4">
<path d="M77.1164 39.466C73.7187 38.7547 70.1198 38.4428 66.7221 37.7315C64.4568 37.324 62.2251 36.8166 60.0271 36.2093C56.2304 35.1967 52.6354 33.6847 48.7381 32.8718C45.8401 32.2622 42.9415 31.8526 40.0425 31.543C44.2398 32.3569 48.7358 33.5718 53.4308 35.0874C60.6235 37.3113 66.4178 39.0305 73.9141 40.1554C80.8104 41.2783 87.2054 42.7995 94 44.422C100.495 46.0436 106.989 47.6652 113.586 48.787C113.452 48.7866 113.319 48.7528 113.186 48.6857C111.321 48.2795 109.455 47.8733 107.59 47.4671C104.892 46.7582 102.094 46.1489 99.297 45.3396C95.6004 44.3274 91.905 42.9151 88.1081 42.0025C86.2097 41.4962 84.2097 41.4895 82.3111 41.0832C80.5124 40.6773 78.9151 39.872 77.1164 39.466Z" fill="#CA9E67"/>
</g>
<g style="mix-blend-mode:screen" opacity="0.3">
<path d="M104.948 30.0583C95.0598 26.4255 85.8692 23.595 75.9785 20.7621C91.8595 26.5149 113.129 35.6855 127.122 37.8319C137.417 39.3661 149.926 36.8076 160.43 35.5424C165.732 34.96 171.035 34.1776 176.337 33.4951C169.636 33.8729 162.535 34.0494 156.332 34.8288C152.731 35.2168 149.327 36.4056 145.725 36.8936C142.324 37.3823 138.922 37.771 135.422 37.8594C133.022 37.9515 130.522 37.7432 128.224 37.3356C125.226 36.7256 122.53 35.4166 119.633 34.607C117.235 33.8991 114.636 33.6904 112.238 32.9825C109.741 32.1742 107.445 30.9666 104.948 30.0583Z" fill="#CA9E67"/>
</g>
<g style="mix-blend-mode:screen" opacity="0.5">
<path d="M49.8999 44.3757C45.4351 43.8276 41.0034 43.3129 36.605 42.8316C42.6016 43.8515 48.3986 44.7708 53.9959 45.5893C74.6862 48.558 97.2715 53.0329 116.666 54.5973C125.164 55.3255 135.266 54.659 145.37 53.4925C144.37 53.5559 143.336 53.6191 142.27 53.6822C139.369 53.8726 136.568 54.1633 133.668 54.2537C131.167 54.3454 128.567 54.5367 126.067 54.5284C119.967 54.5082 116.369 53.7963 110.472 52.9767C106.073 52.4621 101.777 51.4479 97.3788 50.8333C95.2798 50.5263 93.0795 50.619 90.8808 50.2117C89.1815 50.0061 87.4838 49.3004 85.7845 49.0948C82.1865 48.4829 78.5875 48.1709 74.9895 47.559C71.4912 47.0474 67.9922 46.7358 64.4939 46.2242C59.6962 45.5082 54.7979 44.992 49.8999 44.3757Z" fill="#CA9E67"/>
</g>
<g style="mix-blend-mode:screen" opacity="0.5">
<path d="M173.666 24.7862C170.864 25.3769 168.029 25.9342 165.16 26.458C166.027 26.3276 166.928 26.1972 167.862 26.067C183.069 23.9174 198.98 20.6702 220.277 21.5408C220.278 21.3408 220.278 21.1742 220.279 21.0408C214.982 20.0232 211.483 19.8116 205.381 20.2914C204.281 20.3877 203.18 20.4841 202.18 20.4808C200.381 20.3748 198.683 19.6692 196.982 19.8635C191.781 20.2463 179.47 23.6055 173.666 24.7862Z" fill="#CA9E67"/>
</g>
<g style="mix-blend-mode:multiply" opacity="0.5">
<path d="M40.8696 23.3457C42.3676 23.9506 44.763 25.3586 45.1626 25.4599C46.861 25.9656 51.6586 26.6815 54.856 27.4921C59.7519 28.7083 64.5473 30.1243 69.3429 31.4402C73.4393 32.5538 77.5353 33.7674 81.7312 34.9813C86.0272 36.1955 90.3229 37.5098 94.6192 38.6241C94.8857 38.6916 95.1521 38.7592 95.4186 38.8267C93.0208 38.1521 90.5233 37.3771 87.9262 36.5018C71.6432 31.3478 55.2593 26.4934 38.7736 22.1387C32.579 20.5182 25.283 19.2939 18.2883 17.6707C20.586 18.3783 22.9837 19.0863 25.3817 19.6943C29.3783 20.7075 33.576 21.4215 37.5726 22.4347C38.772 22.6387 39.871 22.9423 40.8696 23.3457Z" fill="#683C11"/>
</g>
<g style="mix-blend-mode:multiply" opacity="0.5">
<path d="M121.16 56.5122C130.759 56.944 138.359 56.8693 147.361 56.2991C150.161 56.2084 152.863 55.8174 156.163 55.7283C160.263 55.6419 164.765 54.9569 168.968 54.2708C172.369 53.7821 175.573 52.7927 178.875 52.2036C181.677 51.6129 184.678 51.2229 187.579 50.8325C188.046 50.7007 188.547 50.6024 189.08 50.5375C182.978 51.2173 176.875 51.997 170.773 52.6768C165.571 53.3595 160.269 54.0419 155.067 54.6247C144.063 55.7882 132.359 56.9494 121.16 56.5122Z" fill="#683C11"/>
</g>
<g style="mix-blend-mode:multiply" opacity="0.5">
<path d="M115.319 8.49255C118.508 12.0032 122.898 14.9178 129.691 16.9403C135.286 18.6589 138.884 19.2708 144.886 18.4907C148.488 18.1027 151.991 17.2143 155.493 16.4259C159.296 15.5385 162.9 14.3504 166.504 13.2624C168.372 12.7353 170.241 12.2081 172.109 11.681C170.575 12.0092 168.973 12.4039 167.305 12.8651L167.005 12.8641C162.401 14.0488 157.497 15.2325 152.594 16.1163C148.892 16.804 145.19 17.2917 141.59 17.3798C137.889 17.5675 134.39 17.2559 130.993 16.5446C127.096 15.6317 123.002 13.8181 119.608 11.8068C118.012 10.7015 116.516 9.59653 115.319 8.49255Z" fill="#683C11"/>
</g>
<path style="mix-blend-mode:multiply" opacity="0.5" d="M217.83 59.1329C219.222 50.1375 219.985 41.04 220.329 32.0411C220.401 31.508 220.437 30.9414 220.439 30.3414C220.67 24.0421 220.586 17.6418 220.084 11.3401C219.944 11.3397 219.804 11.3392 219.665 11.3387C217.988 11.3998 216.347 11.5278 214.74 11.7224C215.299 11.5243 215.824 11.3593 216.313 11.2276C148.128 9.30143 79.8333 9.07484 11.5323 10.6483C11.0938 16.5468 10.9691 22.5465 11.0543 28.4468C13.0438 28.6534 14.9283 28.9596 16.4985 29.2648C14.7527 29.2591 12.9719 29.2865 11.156 29.3471C11.1538 30.0138 11.1516 30.6805 11.1494 31.3471C11.2787 34.4809 11.4429 37.6148 11.642 40.7488C12.0607 40.8168 12.4795 40.8849 12.8983 40.953C12.4793 40.9516 12.0603 40.9502 11.6413 40.9488C12.041 46.7502 12.65 52.6522 13.5734 58.4553C81.6546 59.9812 149.74 60.207 217.83 59.1329Z" fill="url(#paint7_linear_6021_1518)"/>
<path style="mix-blend-mode:screen" d="M3.24683 60.321C3.30774 62.0546 3.46866 63.7885 3.72957 65.5227C4.52559 66.7253 5.72193 67.8293 7.21861 68.8343C30.1162 69.6102 83.5092 71.7874 115.117 69.4922C79.6192 68.7744 43.9217 67.956 8.42457 67.0383C6.82657 66.433 5.72989 65.4293 4.53354 64.3253C4.0713 62.9905 3.6424 61.6557 3.24683 60.321Z" fill="url(#paint8_radial_6021_1518)"/>
<g style="mix-blend-mode:screen" opacity="0.5">
<path d="M5.53386 3.92831C18.6351 3.57177 31.236 3.31358 44.4366 3.15737C47.0346 3.76599 51.0319 4.57925 52.2319 4.58323C55.2319 4.59319 65.6362 3.32768 71.1378 2.84592C119.839 2.50749 168.138 3.06774 216.733 4.62896C217.432 4.73128 218.53 5.43493 219.427 6.23791C218.831 5.13593 216.736 3.52895 215.737 3.32563C146.044 1.09441 76.2444 0.862855 6.53817 2.63162C5.33652 3.12763 3.23155 4.62066 2.72824 5.61899C3.63055 4.92198 4.73287 4.22565 5.53386 3.92831Z" fill="#CA9E67"/>
</g>
<g style="mix-blend-mode:screen" opacity="0.5">
<path d="M208.452 59.1018C143.648 60.1868 78.1485 59.9695 13.4531 58.4549C14.3471 60.2579 50.2426 61.677 110.942 61.8783C171.542 62.0794 207.444 61.3985 208.452 59.1018Z" fill="#CA9E67"/>
</g>
<g style="mix-blend-mode:multiply" opacity="0.5">
<path fill-rule="evenodd" clip-rule="evenodd" d="M11.0526 28.4468C10.9721 22.5465 11.0921 16.5468 11.5116 10.6482C76.7172 9.0645 141.917 9.28082 207.011 11.1968C206.544 11.3286 206.043 11.4936 205.509 11.6918C207.043 11.4969 208.61 11.3687 210.211 11.3074C210.344 11.3078 210.477 11.3083 210.611 11.3087L210.86 13.5169C179.064 12.1114 143.609 11.7864 111.009 11.6783C78.4089 11.5701 44.3088 11.557 13.2043 12.8538C12.7266 16.1856 12.3822 19.5178 12.1711 22.8505C12.0316 24.7167 11.9253 26.6163 11.8522 28.5494C11.5858 28.4819 11.3192 28.4477 11.0526 28.4468ZM11.7376 32.9491C11.6623 35.5488 11.6536 38.1822 11.7114 40.849C11.645 40.7821 11.6118 40.7487 11.6118 40.7487C11.4222 37.6147 11.2659 34.4809 11.143 31.3471C11.1452 30.6804 11.1474 30.0138 11.1496 29.3471C11.3496 29.3478 11.5829 29.3485 11.8496 29.3494C11.7789 30.5492 11.7416 31.7491 11.7376 32.9491Z" fill="#683C11"/>
</g>
<defs>
<linearGradient id="paint0_linear_6021_1518" x1="99.7598" y1="71.6533" x2="99.9942" y2="0.983662" gradientUnits="userSpaceOnUse">
<stop stop-color="#692705"/>
<stop offset="1" stop-color="#823B00"/>
</linearGradient>
<radialGradient id="paint1_radial_6021_1518" cx="0" cy="0" r="1" gradientUnits="userSpaceOnUse" gradientTransform="translate(7.80246 -6.78624) rotate(0.190077) scale(241.23 241.23)">
<stop stop-color="#F59547"/>
<stop offset="1" stop-color="#A14C1F"/>
</radialGradient>
<radialGradient id="paint2_radial_6021_1518" cx="0" cy="0" r="1" gradientUnits="userSpaceOnUse" gradientTransform="translate(36.9384 -50.9918) rotate(0.190077) scale(258.476 258.476)">
<stop stop-color="#CFA04D"/>
<stop offset="1" stop-color="white"/>
</radialGradient>
<radialGradient id="paint3_radial_6021_1518" cx="0" cy="0" r="1" gradientUnits="userSpaceOnUse" gradientTransform="translate(141.401 -12.9301) rotate(0.190077) scale(42.597 42.597)">
<stop stop-color="#CFA04D"/>
<stop offset="1" stop-color="white"/>
</radialGradient>
<radialGradient id="paint4_radial_6021_1518" cx="0" cy="0" r="1" gradientUnits="userSpaceOnUse" gradientTransform="translate(153.352 -11.2014) rotate(0.190077) scale(78.285 78.2851)">
<stop stop-color="#CFA04D"/>
<stop offset="1" stop-color="white"/>
</radialGradient>
<radialGradient id="paint5_radial_6021_1518" cx="0" cy="0" r="1" gradientUnits="userSpaceOnUse" gradientTransform="translate(128.975 88.4793) rotate(0.190077) scale(234.99 234.99)">
<stop stop-color="#CFA04D"/>
<stop offset="1" stop-color="white"/>
</radialGradient>
<linearGradient id="paint6_linear_6021_1518" x1="-19.0905" y1="1.92462" x2="52.3951" y2="2.16177" gradientUnits="userSpaceOnUse">
<stop stop-color="#CA9E67"/>
<stop offset="0.65"/>
</linearGradient>
<linearGradient id="paint7_linear_6021_1518" x1="109.099" y1="59.7532" x2="109.266" y2="9.63049" gradientUnits="userSpaceOnUse">
<stop stop-color="#C99365"/>
<stop offset="1" stop-color="#692705"/>
</linearGradient>
<radialGradient id="paint8_radial_6021_1518" cx="0" cy="0" r="1" gradientUnits="userSpaceOnUse" gradientTransform="translate(20.711 74.16) rotate(0.190077) scale(118.435 118.435)">
<stop stop-color="#B0670B"/>
<stop offset="1"/>
</radialGradient>
</defs>
</svg>
