<svg width="348" height="99" viewBox="0 0 348 99" fill="none" xmlns="http://www.w3.org/2000/svg">
<path d="M347.816 78.8781C347.625 76.8341 347.452 74.7887 347.292 72.7419C347.126 70.5868 346.956 68.4317 346.8 66.2766C346.694 64.8042 346.54 63.2411 346.493 61.7307C346.453 60.4629 347.11 58.3809 346.24 57.2458C345.72 56.5658 344.596 56.3653 343.598 56.2285C342.285 56.0484 340.973 55.8696 339.661 55.6894C341.42 55.3738 343.152 54.9661 344.841 54.4689C345.219 54.3579 345.614 54.2319 345.862 53.984C346.084 53.7619 346.158 53.472 346.217 53.1943C346.803 50.389 346.432 47.4103 346.417 44.5766C346.401 41.6832 346.385 38.7913 346.37 35.8979C346.345 33.1455 346.337 30.3916 346.309 27.6392C346.3 26.7275 346.788 24.7485 346.217 23.9426C345.747 23.2788 344.664 23.3222 343.797 23.249C342.928 23.1772 342.053 23.1773 341.183 23.2179C339.881 23.2802 338.589 23.4346 337.303 23.5904C338.99 23.222 340.734 23.0486 342.436 22.7275C343.539 22.5189 344.629 22.2453 345.635 21.8281C346.24 21.5775 346.919 21.3364 347.268 20.8474C347.413 20.6415 347.479 20.3828 347.543 20.1539C347.686 19.6459 347.732 19.1258 347.772 18.6083C347.885 17.182 347.954 15.7543 347.982 14.3252C347.996 13.6046 348.01 12.8812 347.991 12.1606C347.979 11.6906 347.751 11.249 347.698 10.7776C347.474 8.83246 346.472 6.96454 344.861 5.47317C343.26 3.98858 341.086 2.90357 338.681 2.4078C337.79 2.22358 336.871 2.12062 335.951 2.09624C227.504 -0.646744 121.149 -0.742905 17.0971 2.07458C16.6932 2.08542 16.2372 2.05559 15.8489 2.13551C15.4242 2.22356 15.0046 2.35363 14.592 2.46741C13.7373 2.70175 12.8896 2.95774 12.0713 3.26387C10.4799 3.85852 8.98199 4.65907 7.95568 5.79825C7.36798 6.45251 6.95885 7.1921 6.40929 7.86531C6.13365 8.20395 5.7644 8.46673 5.5373 8.82162C4.43644 10.5446 3.32516 12.2893 1.80477 13.8159C0.320791 15.3086 -0.135105 17.6656 0.0330566 19.4915C0.261895 21.9758 0.338156 24.4885 0.620737 26.9632C1.07148 30.9159 0.658846 34.8752 1.20667 38.8509C1.28468 39.4211 1.40432 40.0442 1.95561 40.4222C2.33354 40.6809 2.84845 40.7743 3.3408 40.8583C4.94266 41.1319 6.54279 41.4042 8.14466 41.6778C6.16313 42.6816 3.20728 42.7574 2.16364 44.4113C1.82731 44.9437 1.76838 45.5532 1.71637 46.1465C1.5274 48.2623 1.27431 50.3741 1.09054 52.4913C1.00906 53.4422 0.941476 54.3944 0.899869 55.3467C0.861729 56.257 0.762863 57.1252 0.653644 58.0301C0.398802 60.1296 -0.285956 62.8726 0.537516 64.9261C1.33325 66.9119 4.50404 66.9945 6.70054 67.4768C5.54595 67.5797 4.66179 68.3139 3.98741 69.0535C3.64762 69.426 3.40665 69.8256 3.0842 70.2062C2.79989 70.5408 2.53987 70.8862 2.3041 71.2424C1.83256 71.9549 1.45631 72.7054 1.18413 73.4788C1.00037 73.9976 0.898114 74.404 0.866909 74.9431C0.839171 75.424 0.813155 75.9035 0.790618 76.3844C0.745544 77.3461 0.707424 78.3065 0.68142 79.2682C0.627678 81.1904 0.60861 83.1138 0.629413 85.0373C0.648483 86.8984 0.0850361 88.7041 1.09747 90.5409C2.09951 92.3573 3.82274 93.9286 5.98631 94.9581C7.73727 95.7911 9.7153 96.2381 11.7575 96.3262C116.41 99.9212 222.788 99.8684 330.828 96.3045C333.681 96.2097 336.433 95.3198 338.534 93.8067C339.546 93.078 340.42 92.4386 341.171 91.5297C342.084 90.4217 342.941 89.2852 343.738 88.123C345.685 85.2865 348.119 82.1561 347.816 78.8781Z" fill="url(#paint0_linear_4084_2996)"/>
<path d="M336.171 89.12C228.126 92.6758 121.754 92.7299 17.1075 89.1336C12.4527 89.1336 8.11171 86.5315 6.38675 83.2494C5.62049 81.8054 5.44541 80.2125 5.56676 78.6588C5.5841 78.3865 5.61878 78.1143 5.72453 77.842C5.88055 77.4194 6.12499 77.0523 6.19433 76.6161C6.22901 76.3845 6.26367 76.1664 6.29835 75.9348C6.47344 74.6954 6.52545 73.4288 6.66414 72.1894C6.75082 71.4945 6.85658 70.759 7.09929 70.0925C7.3784 69.3164 7.83086 68.6079 8.65087 68.1311C12.1025 66.1156 18.8307 66.1427 23.8513 66.06C24.8273 66.0329 25.734 66.0194 26.554 65.9788C28.7332 65.869 30.9123 65.8284 33.1089 65.8419C27.9322 65.8284 22.7539 65.4735 17.664 64.78C15.2404 64.4671 12.8359 64.058 10.4643 63.5812C9.88871 63.4728 9.27843 63.3225 8.73927 63.1179C7.99035 62.8592 7.34543 62.4772 7.01258 61.9056C6.73346 61.4152 6.75082 60.8707 6.76815 60.3533C6.78549 59.8494 6.69883 59.3319 6.7335 58.828C6.78551 57.7525 6.9606 56.7027 7.09929 55.6407C7.23798 54.7819 7.36109 53.911 7.43043 53.0386C7.60553 50.7237 7.79619 48.4209 8.0233 46.1195C8.09264 45.4247 8.1984 44.6621 8.82424 44.1717C9.20737 43.8723 9.69625 43.722 10.1834 43.5865C11.5079 43.2059 12.8688 42.9187 14.2626 42.7413C14.9075 42.6465 15.6045 42.6464 16.232 42.5096C16.9636 42.3322 17.5392 42.2103 18.3418 42.1425C25.9767 41.4477 33.5943 40.7528 41.2309 40.0592C42.1376 39.978 43.0616 39.8953 43.9683 39.8141C32.4622 38.725 20.9579 37.6075 9.45181 36.5184C8.94559 36.4642 8.44111 36.4236 7.93489 36.3681C7.48241 36.3274 6.99353 36.2733 6.67975 36.0145C6.64507 36.001 6.62772 35.9739 6.61039 35.9603C6.38328 35.7287 6.34863 35.4293 6.31395 35.13C5.7904 30.2671 6.38328 25.2552 6.03482 20.3517C6.00015 20.0795 5.9135 18.7033 5.80775 17.1509C5.64999 14.9037 5.45928 12.3152 5.3726 12.3152C4.88371 6.9213 10.1834 2.26297 17.104 2.08688C121.141 -0.733313 227.495 -0.637167 335.94 2.1004C342.896 2.27785 348.247 6.96328 347.706 12.3842C347.514 14.2359 347.985 16.0077 347.41 17.8729C347.289 18.3091 347.096 18.7588 346.678 19.0581C346.295 19.3169 345.789 19.4117 345.285 19.5079C343.977 19.753 342.67 20.0118 341.344 20.2569C339.6 20.5834 337.875 20.8828 336.114 21.0331C325.655 21.9054 315.213 22.7764 304.77 23.6623C304.491 23.6758 304.211 23.7029 303.932 23.73C303.601 23.7571 303.253 23.7842 302.922 23.8113C303.759 23.7978 304.577 23.7842 305.415 23.7842C318.507 23.6068 331.632 23.4442 344.725 23.2668C345.09 23.2668 345.491 23.2668 345.787 23.4442C346.118 23.6352 346.205 23.9887 346.259 24.3165C346.328 24.7527 346.345 25.174 346.328 25.583C346.311 26.8766 346.014 28.1296 346.014 29.4517C346.014 30.6234 346.38 31.7666 346.363 32.9519C346.328 34.6681 346.259 36.3979 346.17 38.1547C345.961 42.0911 345.612 46.0816 345.054 50.018C344.967 50.5896 344.862 51.2032 344.374 51.6245C343.991 51.9509 343.433 52.1284 342.892 52.2652C342.561 52.36 342.212 52.4426 341.864 52.4968C334.177 54.213 325.74 52.8503 317.843 53.9137C317.319 53.9679 316.798 54.0491 316.291 54.1453C316.116 54.1724 315.943 54.213 315.768 54.2401C316.413 54.2808 317.058 54.3078 317.703 54.362C326.348 54.8524 334.978 55.5337 343.572 56.3912C344.582 56.486 345.699 56.6363 346.292 57.2771C346.746 57.7674 346.763 58.4217 346.763 59.0204V61.0089C346.763 63.0109 346.763 65.0265 346.885 67.0299C347.042 69.6862 347.25 72.3276 347.478 74.9838C347.582 76.2775 347.687 77.586 347.809 78.8796C348.32 84.2436 343.055 88.8884 336.171 89.12Z" fill="url(#paint1_linear_4084_2996)"/>
<path d="M346.368 32.9477C346.333 34.6639 346.264 36.3937 346.176 38.1506C341.748 38.4635 337.39 38.7358 333.135 39.1042C332.147 39.1895 331.157 39.2735 330.167 39.3548C326.504 39.6569 322.836 39.9291 319.166 40.177C317.33 40.3016 315.494 40.4127 313.658 40.5319C312.49 40.6077 311.436 40.9708 310.288 41.071C308.686 41.2105 306.949 40.8854 305.342 40.8109C303.549 40.7283 301.753 40.6999 299.959 40.7161C296.355 40.7486 292.756 40.964 289.176 41.2837C281.999 41.9257 274.898 42.9877 267.776 43.9183C256.362 45.4083 244.87 46.5353 233.339 47.2965C239.62 47.7828 245.859 48.5834 252.01 49.6914C249.705 49.8391 247.397 49.9678 245.088 50.0802C237.758 50.4351 230.415 50.618 223.071 50.7114C215.722 50.8049 208.372 50.8076 201.021 50.8008C193.67 50.794 186.318 50.7764 178.968 50.8292C171.624 50.8821 164.279 51.004 156.942 51.2776C153.275 51.4144 149.61 51.5878 145.951 51.8086C145.035 51.8641 144.12 51.9224 143.206 51.9833C142.093 52.0578 141.032 52.3057 139.906 52.4073C131.142 53.2051 122.408 54.2116 113.75 55.5431C100.292 57.6129 86.7821 59.6298 73.0986 60.3653C70.6229 60.4873 68.1473 60.6105 65.6717 60.7324C53.8883 62.5855 41.1617 62.9661 29.6036 64.0701C25.6821 64.4521 21.6723 64.6552 17.6624 64.7785C15.2388 64.4656 12.8343 64.0565 10.4627 63.5797C9.88711 63.4714 9.27689 63.321 8.73773 63.1165C7.9888 62.8577 7.34389 62.4758 7.01103 61.9041C6.73192 61.4138 6.74922 60.8692 6.76656 60.3518C6.78389 59.8479 6.69723 59.3305 6.7319 58.8266C6.78391 57.7511 6.959 56.7013 7.09769 55.6393C17.6797 54.958 28.5219 52.5604 38.7017 51.4171C51.7767 49.9596 65.077 49.0886 78.2561 48.5157C93.1774 47.875 108.048 49.2512 122.918 49.2512C136.69 49.2512 150.444 48.3111 164.145 47.4537C190.852 45.7646 217.523 44.0212 244.213 42.2102C238.407 42.1343 232.602 42.0124 226.8 41.8539C219.403 41.6521 212.007 41.3934 204.615 41.0967C202.892 41.0276 201.123 40.8502 199.419 41.006C197.658 41.1672 195.863 41.2065 194.092 41.1875C190.571 41.1496 187.055 40.7987 183.636 40.1418C181.623 39.7544 179.64 39.2613 177.6 38.9822C174.157 38.5109 170.631 38.6599 167.136 38.6247C154.076 38.4933 141.202 35.7923 128.143 35.8979C124.714 35.9264 121.293 36.1485 117.878 36.3842C114.248 36.6362 110.616 36.9057 106.97 36.9775C105.365 37.0087 103.676 37.1035 102.116 36.815C100.902 36.5915 99.5277 36.7039 98.2881 36.6782C96.0778 36.6307 93.8674 36.5901 91.6587 36.5549C87.238 36.4844 82.8172 36.4384 78.3948 36.4208C61.6428 36.3531 44.9254 37.0886 28.1716 36.9789C21.0239 36.9383 13.7548 36.815 6.67815 36.0117C6.64348 35.9982 6.62618 35.9711 6.60884 35.9576C6.38174 35.7259 6.34703 35.4266 6.31236 35.1272C5.7888 30.2643 6.38174 25.2525 6.03328 20.349C5.99861 20.0767 5.9119 18.7004 5.80615 17.1481C14.3477 16.5765 22.9604 16.4262 31.5019 15.9358C48.2366 14.9686 64.9713 14.5596 81.7771 14.6151C115.073 14.7384 148.281 16.399 181.473 18.374C214.682 20.3489 247.82 22.7736 281.028 24.6118C297.814 25.5383 314.62 26.1099 331.442 26.1099C336.375 26.1099 341.342 25.8783 346.328 25.5789C346.311 26.8725 346.014 28.1255 346.014 29.4475C346.02 30.6192 346.385 31.7638 346.368 32.9477ZM346.892 67.0271C346.77 65.025 346.77 63.0094 346.77 61.006C336.171 60.1066 325.554 59.1815 314.887 58.6085C296.601 57.6305 278.247 57.7836 259.945 58.3701C256.135 58.492 252.388 58.5611 248.616 58.939C246.792 59.1218 244.967 59.2979 243.141 59.4659C235.836 60.1391 228.513 60.6945 221.178 61.1307C218.317 61.3013 215.455 61.4531 212.591 61.5872C220.008 61.5452 227.422 61.5032 234.839 61.4612C242.255 61.4192 249.672 61.3772 257.086 61.3352C260.795 61.3135 264.503 61.2932 268.211 61.2716C270.064 61.2607 271.919 61.2499 273.773 61.2404C274.554 61.2363 275.357 61.2756 276.127 61.1442C276.597 61.0643 277.039 60.914 277.517 60.8584C279.175 60.6661 281.04 60.9248 282.708 60.9938C284.545 61.0711 286.383 61.1537 288.221 61.2417C291.899 61.4178 295.578 61.6156 299.253 61.831C305.044 62.1696 310.829 62.5503 316.612 62.9553C322.923 63.405 329.198 63.9766 335.474 64.5767C321.215 65.6387 306.954 66.7426 292.66 67.3549C259.765 68.7717 226.854 70.5557 193.906 70.0518C161.413 69.5479 128.989 68.0904 96.4765 68.1852C79.3413 68.2259 62.2218 68.444 45.1213 68.8395C32.5005 69.1253 19.7046 69.0711 7.10119 70.0924C6.85675 70.7602 6.75272 71.4958 6.66603 72.1893C6.52561 73.4287 6.4736 74.6953 6.30024 75.9347C20.3339 76.3844 34.541 75.6353 48.5383 75.6082C65.6578 75.5811 82.7756 75.7166 99.8935 76.0308C132.335 76.6295 164.741 78.0329 197.183 78.4826C230.182 78.9458 263.13 77.0928 296.058 75.7992C313.037 75.1314 330.138 75.1179 347.134 74.9824H347.483C347.258 72.3261 347.048 69.6834 346.892 67.0271Z" fill="url(#paint2_linear_4084_2996)"/>
<path d="M258.746 20.4058C251.974 17.4475 240.732 18.3604 235.371 22.3428C231.994 24.8515 231.826 29.5396 235.371 32.032C243.186 37.5261 256.905 35.1814 261.859 28.3801C261.955 28.3137 262.048 28.246 262.144 28.1797C265.926 25.5071 263.232 21.0696 258.746 20.4058Z" fill="#EB924D"/>
<path d="M260.349 17.8024C253.577 14.844 242.335 15.757 236.974 19.7394C233.597 22.248 233.429 26.9362 236.974 29.4286C244.789 34.9227 258.508 32.5779 263.462 25.7767C263.558 25.7103 263.651 25.6426 263.747 25.5762C267.531 22.9037 264.835 18.4661 260.349 17.8024Z" fill="url(#paint3_linear_4084_2996)"/>
<path d="M258.746 19.4807C251.974 16.5223 240.732 17.4353 235.371 21.4177C231.994 23.9263 231.826 28.6145 235.371 31.1068C243.186 36.6009 256.905 34.2562 261.859 27.455C261.955 27.3886 262.048 27.3209 262.144 27.2545C265.926 24.5819 263.232 20.1444 258.746 19.4807Z" fill="url(#paint4_linear_4084_2996)"/>
<path d="M131.749 64.4548C124.978 61.4964 113.735 62.4094 108.375 66.3918C104.997 68.9018 104.829 73.5885 108.375 76.0809C116.19 81.575 129.908 79.2303 134.863 72.4291C134.958 72.3627 135.052 72.2949 135.147 72.2286C138.93 69.556 136.236 65.1199 131.749 64.4548Z" fill="#EB924D"/>
<path d="M133.354 61.8513C126.583 58.893 115.34 59.8059 109.98 63.787C106.602 66.2956 106.434 70.9838 109.98 73.4762C117.795 78.9702 131.513 76.6255 136.468 69.8242C136.563 69.7579 136.657 69.6901 136.752 69.6238C140.535 66.9526 137.841 62.5164 133.354 61.8513Z" fill="url(#paint5_linear_4084_2996)"/>
<path d="M131.749 63.5296C124.978 60.5712 113.735 61.4842 108.375 65.4666C104.997 67.9766 104.829 72.6634 108.375 75.1558C116.19 80.6499 129.908 78.3051 134.863 71.5039C134.958 71.4375 135.052 71.3698 135.147 71.3034C138.93 68.6323 136.236 64.1947 131.749 63.5296Z" fill="url(#paint6_linear_4084_2996)"/>
<path d="M8.35654 60.1486C8.32187 61.1429 8.32183 62.1778 8.73963 63.1178C7.9907 62.8591 7.34579 62.4771 7.01294 61.9055C6.73382 61.4151 6.75117 60.8706 6.76851 60.3532C6.78585 59.8493 6.69918 59.3318 6.73386 58.8279C6.83787 56.88 7.2921 54.9728 7.43079 53.0385C7.60588 50.7236 7.79655 48.4208 8.02365 46.1194C8.093 45.4246 8.19876 44.662 8.8246 44.1716C9.20773 43.8722 9.6966 43.7219 10.1838 43.5864C11.5082 43.2058 12.8691 42.9186 14.263 42.7412C14.9079 42.6464 15.6048 42.6463 16.2324 42.5095C16.964 42.3321 17.5395 42.2102 18.3422 42.1424C25.9771 41.4476 33.5946 40.7527 41.2312 40.0591C33.0381 41.3527 24.8451 42.6328 16.6519 43.9277C15.0553 44.1756 12.9246 44.1648 11.5915 44.9857C11.087 45.2959 10.631 45.7578 10.2288 46.1452C10.0988 46.2712 8.95982 48.0524 9.40016 48.0646C15.421 48.2217 21.4419 48.3775 27.4611 48.5346C23.0005 49.1008 18.5537 49.7321 14.1226 50.4256C11.8879 50.7764 9.35507 51.3183 8.36691 52.9234C7.74454 53.9339 7.78789 55.2993 7.99593 56.387C8.06701 56.7555 8.22996 57.1036 8.32358 57.4679C8.55068 58.343 8.38254 59.2668 8.35654 60.1486Z" fill="#EB924D"/>
<path d="M303.937 23.7279C303.467 23.7005 303.013 23.6868 302.561 23.6595H304.774C304.495 23.6732 304.216 23.7005 303.937 23.7279Z" fill="#EB924D"/>
<path d="M311.468 53.4747C313.595 53.6386 315.723 53.7876 317.848 53.9109C317.324 53.9651 316.803 54.0463 316.296 54.1425C314.675 53.9109 313.055 53.6792 311.468 53.4747Z" fill="#EB924D"/>
<path d="M342.846 51.0094C343.178 49.9745 343.091 48.8841 342.985 47.8221C342.793 45.8472 342.602 43.8722 342.41 41.8973C342.375 41.5153 342.306 41.094 341.922 40.8624C341.609 40.6714 341.172 40.6714 340.789 40.685C337.616 40.7662 334.461 40.8489 331.306 40.9301C334.723 40.6985 338.105 39.9901 341.189 38.8319C342.078 38.4919 343.002 38.0693 343.334 37.3609C343.507 36.9938 343.507 36.5983 343.507 36.2027C343.455 33.0967 342.758 29.6236 342.286 26.546C340.787 25.4434 338.556 25.2931 336.517 25.1983C328.255 24.8027 319.973 24.4086 311.711 24.013C309.741 23.9033 307.527 23.8491 305.417 23.7814C318.51 23.604 331.635 23.4414 344.727 23.264C345.093 23.264 345.494 23.264 345.79 23.4414C346.121 23.6324 346.208 23.9859 346.262 24.3138C346.541 26.0706 346.017 27.7055 346.017 29.4489C346.017 30.6206 346.383 31.7638 346.366 32.9491C346.244 38.5204 345.859 44.3355 345.059 50.0165C344.972 50.5882 344.866 51.2017 344.379 51.623C343.996 51.9495 343.438 52.1269 342.897 52.2637C342.566 52.3586 342.217 52.4412 341.869 52.4954C342.34 52.0714 342.671 51.5404 342.846 51.0094Z" fill="#EB924D"/>
<path d="M6.03677 20.3489C5.98477 19.6811 5.51324 12.3123 5.37455 12.3123C4.88567 6.91845 10.1854 2.26013 17.106 2.08404C121.143 -0.736156 227.497 -0.639969 335.942 2.0976C342.897 2.27504 348.249 6.96048 347.708 12.3814C347.516 14.2331 347.987 16.0048 347.412 17.8701C347.29 18.3062 347.098 18.7559 346.68 19.0553C346.297 19.314 345.791 19.4088 345.286 19.505C343.983 19.7488 342.686 20.0266 341.377 20.246C342.513 19.4495 343.808 18.4945 344.335 17.3404C344.694 16.5562 344.401 15.8803 344.066 15.1312C343.548 13.9744 343.454 12.8704 343.393 11.6513C343.319 10.1518 343.66 7.99535 342.131 6.79792C340.984 5.89985 339.468 5.11149 338.019 4.55476C334.446 3.18124 330.324 2.89815 326.402 2.77624C326.204 2.77082 326.007 2.76402 325.811 2.75995C318.566 2.57438 311.3 2.56083 304.082 3.13381C303.204 3.2029 302.436 3.39527 301.592 3.5226C300.531 3.68243 299.281 3.48331 298.206 3.43996C295.752 3.33972 293.295 3.25304 290.838 3.17854C285.925 3.03089 281.009 2.93337 276.092 2.88732C272.407 2.85345 268.723 2.84801 265.037 2.84259C263.874 2.84123 262.71 2.83853 261.549 2.83717C259.309 2.83311 257.071 2.83042 254.831 2.82771C251.726 2.82364 248.623 2.81821 245.52 2.81415C245.372 2.81415 245.225 2.81415 245.078 2.81415C240.159 2.80737 235.241 2.79926 230.323 2.79249C227.865 2.78842 225.404 2.78572 222.946 2.78166C221.826 2.7803 220.571 2.90357 219.469 2.74102C218.35 2.57576 217.435 2.04881 216.249 1.96618C215.181 1.89168 214.075 2.03527 213.016 2.10165C210.334 2.26961 207.654 2.46874 204.979 2.69766C203.767 2.80196 202.444 2.95501 201.631 3.6648C201.352 3.90997 201.146 4.21205 200.804 4.40169C200.05 4.82431 199.014 4.54392 198.14 4.30281C196.399 3.82194 194.563 3.55237 192.719 3.49548C191.058 3.44536 189.408 3.67025 187.747 3.59304C186.698 3.54427 185.691 3.34649 184.664 3.18801C180.618 2.56491 176.383 2.52563 172.285 2.29536C169.244 2.12333 166.198 1.9987 163.152 1.91472C153.319 1.6411 143.475 1.78606 133.649 2.11116C128.729 2.2737 123.812 2.4823 118.898 2.7058C116.651 2.80875 114.147 3.17987 111.911 2.95366C111.264 2.88864 110.663 2.68546 110.023 2.592C109.352 2.49447 108.676 2.50939 107.998 2.51346C105.268 2.527 102.537 2.55 99.8068 2.56219C96.6169 2.57574 93.4098 2.56219 90.2026 2.56219C89.1242 2.5649 88.0789 2.73152 87.0248 2.73288C86.0627 2.73423 85.1022 2.56761 84.1314 2.57439C82.11 2.58793 80.0903 2.89812 78.218 3.49548C77.4934 3.72711 76.7531 4.0048 75.9712 3.96958C74.5392 3.90456 73.5459 2.84938 72.2526 2.36716C69.1702 1.21849 65.9838 3.40878 62.8338 2.52019C61.2683 2.07861 59.6665 2.145 58.0196 2.13145C55.9167 2.11384 53.8138 2.10707 51.7109 2.11384C44.5805 2.14093 37.4518 2.33192 30.3561 2.89C26.8178 3.17581 23.2967 3.54426 19.7913 4.03461C18.1011 4.26624 16.3744 4.66041 14.6668 4.81077C14.1259 4.86495 13.7427 4.85141 13.2712 5.11014C11.1839 6.2588 5.4127 12.6577 9.53006 14.9077C10.8667 15.6378 12.6176 15.6486 14.249 15.631C24.7478 15.5186 35.2466 15.4061 45.7455 15.2937C34.411 15.9967 23.0766 16.7011 11.7422 17.4041C11.0088 17.4502 10.2512 17.5003 9.6046 17.7739C7.42197 18.6964 8.17435 20.8447 7.8623 22.4011C7.4549 24.4383 7.96455 26.6436 8.21592 28.6862C8.54704 31.3019 8.94755 33.9162 9.45376 36.5183C8.94755 36.4641 8.44306 36.4235 7.93684 36.3679C7.44969 36.3273 6.92613 36.2596 6.61234 35.9589C6.38523 35.7272 6.35058 35.4279 6.31591 35.1285C5.79235 30.2643 6.38523 25.2524 6.03677 20.3489Z" fill="#EB924D"/>
<path d="M336.171 89.1199C228.126 92.6757 121.754 92.7299 17.1076 89.1335C12.4528 89.1335 8.11174 86.5314 6.38678 83.2493C5.62052 81.8053 5.44544 80.2124 5.56679 78.6587C5.58413 78.3864 5.61881 78.1142 5.72456 77.8419C5.88058 77.4193 6.12502 77.0522 6.19436 76.616C6.45614 75.1585 6.50816 73.6604 6.66592 72.1893C6.83928 70.7047 7.11838 69.0291 8.65264 68.131C12.1043 66.1155 18.8325 66.1426 23.8531 66.0599C27.9496 66.1006 32.0288 66.1277 36.1947 66.3051C34.9795 66.3051 33.9029 66.7467 32.7344 66.8361C31.1256 66.9594 29.4943 66.9837 27.8803 67.0582C24.6939 67.2032 21.5075 67.3495 18.3228 67.4958C16.1124 67.5973 13.8743 67.7017 11.7662 68.2326C10.9687 68.4331 10.1713 68.7067 9.59918 69.1849C8.97508 69.7064 8.68557 70.4148 8.45673 71.1057C8.01466 72.444 7.46685 74.0532 7.73382 75.4416C7.81357 75.8561 8.00772 76.2503 8.07533 76.6661C8.14814 77.1212 8.09095 77.5737 8.07015 78.0302C7.99907 79.569 8.1308 81.1457 8.94908 82.5707C10.9011 85.976 16.0101 87.4606 20.6979 88.142C26.4327 88.9588 31.2609 89.7349 37.0494 89.1227C45.5061 89.1931 53.9609 89.2622 62.4176 89.3272C67.3619 89.3651 72.3079 89.4233 77.2522 89.4396C78.0774 89.4423 78.8315 89.2364 79.6429 89.2337C80.8339 89.2297 82.0595 89.3963 83.2488 89.4654C85.6793 89.6062 88.1133 89.7078 90.5491 89.7728C96.5197 89.93 102.499 89.8568 108.461 89.5534C109.881 89.4816 111.261 89.2798 112.637 89.5995C114.626 90.0614 116.72 90.0451 118.785 90.1169C123.689 90.2876 128.6 90.3093 133.507 90.1806C134.684 90.1494 135.861 90.1101 137.038 90.0627C138.921 89.9855 140.836 89.8812 142.589 89.3394C143.494 89.0604 144.343 88.6675 145.281 88.467C147.948 87.8954 150.676 88.9506 153.268 89.6997C156.628 90.6723 160.322 90.209 163.843 90.3946C168.642 90.6492 173.255 90.912 178.054 90.4271C178.097 90.423 178.141 90.4176 178.184 90.4136C180.443 90.1819 182.689 89.7769 184.754 89.0075C185.831 88.6052 186.913 88.0959 188.105 88.1135C189.543 88.1366 190.747 88.9127 191.982 89.4897C195.858 91.2994 200.678 91.2588 205.166 90.87C208.999 90.5381 212.862 89.9841 216.729 90.2876C218.328 90.4135 219.865 90.2375 221.481 90.2429C223.482 90.251 225.481 90.2578 227.481 90.2659C243.971 90.3336 260.481 90.3756 276.954 89.9395C283.909 89.762 290.882 89.4897 297.837 89.1227C301.516 88.9317 305.193 88.7136 308.871 88.482C310.702 88.3587 312.533 88.2232 314.379 88.1013C319.923 87.6923 325.518 87.7193 331.079 87.4064C334.409 87.2154 337.896 86.9296 340.703 85.4992C342.306 84.6824 343.579 83.401 344.137 81.9584C344.416 81.2635 344.52 80.5144 344.364 79.7925C344.277 79.4376 344.102 79.1111 344.085 78.7711C344.05 77.5317 344.05 76.2787 344.033 75.0393C344.015 73.105 344.277 71.103 343.929 69.1957C343.894 68.9777 343.842 68.746 343.65 68.597C343.492 68.4751 343.267 68.4196 343.039 68.3654C342.098 68.1608 341.174 67.9563 340.25 67.7531C341.488 67.2763 342.864 66.7047 343.301 65.6833C343.511 65.2201 343.494 64.7297 343.476 64.2529C343.442 63.0948 343.39 61.896 342.814 60.834C342.221 59.7721 342.117 58.8997 340.687 58.5868C333.366 57.0074 325.415 55.5214 317.711 54.3647C326.357 54.855 334.987 55.5363 343.58 56.3938C344.591 56.4886 345.707 56.639 346.3 57.2797C346.755 57.77 346.772 58.4243 346.772 59.023C346.772 61.6928 346.737 64.3626 346.893 67.0325C347.138 70.9824 347.452 74.9323 347.817 78.8822C348.32 84.2435 343.055 88.8883 336.171 89.1199Z" fill="#EB924D"/>
<path d="M148.566 16.139C137.147 17.675 125.374 17.587 113.994 15.8802C125.505 15.3939 137.044 15.841 148.566 16.139Z" fill="#EB924D"/>
<path d="M241.843 23.4874C236.099 24.2311 230.207 24.0225 224.373 23.8112C208.401 23.2314 192.081 22.5988 177.243 18.2981C186.292 18.2724 195.264 19.4468 204.227 20.3611C216.579 21.6195 229.435 22.5717 241.843 23.4874Z" fill="#EB924D"/>
<path d="M249.134 23.0919C244.896 22.9876 240.674 22.626 236.458 22.2657C217.412 20.6375 198.369 19.0079 179.323 17.3797C158.667 15.6134 137.881 13.8444 117.152 14.9659C114.395 14.9388 111.45 15.1976 108.693 15.1705C121.394 16.2717 134.204 16.6144 146.97 16.1945C151.999 16.0292 157.048 15.7462 162.056 16.1458C166.066 16.4654 169.996 17.2186 173.935 17.8904C181.325 19.1529 188.79 20.1376 196.285 20.9409C217.201 23.18 238.341 23.9941 259.451 23.9019C255.57 23.5389 253.04 23.1881 249.134 23.0919Z" fill="url(#paint7_linear_4084_2996)"/>
<path d="M81.5043 37.5762C71.4024 38.4513 61.174 38.4337 51.0757 37.5261C61.2798 36.7499 71.2811 36.9639 81.5043 37.5762Z" fill="#EB924D"/>
<path d="M89.4875 37.6439C75.1712 37.4204 60.8497 37.3744 46.5317 37.5071C48.2082 37.4922 50.0215 37.1901 51.7118 37.0235C53.4923 36.8474 55.2744 36.6714 57.06 36.5291C60.6382 36.2447 64.2147 36.1295 67.805 36.3449C68.4344 36.3828 68.9249 36.2934 69.5352 36.2284C70.3552 36.1417 71.2445 36.2569 72.068 36.2962C73.9004 36.3842 75.7311 36.4898 77.5601 36.6117C81.2181 36.8556 84.8691 37.1644 88.508 37.541C88.8322 37.5735 89.1598 37.6087 89.4875 37.6439Z" fill="url(#paint8_linear_4084_2996)"/>
<path d="M117.243 55.856C113.341 57.0507 109.437 58.2441 105.534 59.4375C103.079 60.1879 100.618 60.941 98.0571 61.4354C94.758 62.0721 91.3497 62.2685 87.9604 62.4527C79.4258 62.9173 70.7265 63.3115 62.4189 61.7077C80.9341 61.5655 99.099 58.7249 117.243 55.856Z" fill="#EB924D"/>
<path d="M134.645 52.4994C124.76 54.5177 114.875 56.536 104.99 58.5543C100.278 59.516 95.5557 60.4805 90.7431 61.0602C84.7777 61.7795 78.7222 61.9014 72.6875 61.9624C67.3358 62.0166 61.984 62.022 56.6323 61.98C58.6988 61.7267 60.774 61.5167 62.8543 61.3501C63.6986 61.2823 64.6105 61.3067 65.4409 61.2065C69.8131 60.6837 73.9322 60.9017 78.3859 60.773C83.0233 60.6389 87.607 59.6691 92.1595 59.0853C99.3922 58.1574 106.594 57.0873 113.776 55.9481C120.742 54.8428 127.694 53.6711 134.645 52.4994Z" fill="url(#paint9_linear_4084_2996)"/>
<path d="M306.996 67.619C298.806 69.9245 289.831 69.5072 281.144 69.0751C279.322 68.9844 277.489 68.895 275.673 69.0413C274.509 69.1348 273.362 69.3244 272.217 69.51C267.06 70.3485 261.866 71.1259 256.604 71.34C251.343 71.554 245.986 71.1869 241.031 69.789C254.758 71.512 268.906 68.1581 282.808 67.9292C286.269 67.8723 289.734 67.9956 293.193 67.8588C297.915 67.6746 302.263 67.6691 306.996 67.619Z" fill="#EB924D"/>
<path d="M235.727 69.365C243.263 70.1873 250.872 71.0122 258.458 70.5408C263.352 70.236 268.166 69.3948 273.048 68.9776C278.838 68.4832 284.679 68.5875 290.502 68.5171C300.956 68.3897 311.399 67.6921 321.73 66.4324C318.838 66.3782 315.943 66.3931 313.053 66.4758C310.508 66.5476 307.979 66.4338 305.424 66.473C299.753 66.5597 294.093 66.8469 288.441 67.214C282.8 67.5797 277.167 68.024 271.531 68.4304C265.906 68.8354 260.273 69.2038 254.628 69.4151C248.98 69.6264 243.316 69.6793 237.667 69.4544C237.027 69.4273 236.361 69.4341 235.727 69.365Z" fill="url(#paint10_linear_4084_2996)"/>
<defs>
<linearGradient id="paint0_linear_4084_2996" x1="266.888" y1="-146.465" x2="228.101" y2="-12.8711" gradientUnits="userSpaceOnUse">
<stop stop-color="#CF5C2B"/>
<stop offset="1" stop-color="#59173E"/>
</linearGradient>
<linearGradient id="paint1_linear_4084_2996" x1="198.28" y1="-43.7536" x2="164.126" y2="186.79" gradientUnits="userSpaceOnUse">
<stop stop-color="#CF5C2B"/>
<stop offset="1" stop-color="#59173E"/>
</linearGradient>
<linearGradient id="paint2_linear_4084_2996" x1="197.385" y1="-36.6844" x2="153.551" y2="249.819" gradientUnits="userSpaceOnUse">
<stop stop-color="#CF5C2B"/>
<stop offset="1" stop-color="#59173E"/>
</linearGradient>
<linearGradient id="paint3_linear_4084_2996" x1="261.842" y1="-1.51339" x2="250.913" y2="35.8815" gradientUnits="userSpaceOnUse">
<stop stop-color="#CF5C2B"/>
<stop offset="1" stop-color="#59173E"/>
</linearGradient>
<linearGradient id="paint4_linear_4084_2996" x1="264.262" y1="-3.87406" x2="237.927" y2="74.2774" gradientUnits="userSpaceOnUse">
<stop stop-color="#CF5C2B"/>
<stop offset="1" stop-color="#59173E"/>
</linearGradient>
<linearGradient id="paint5_linear_4084_2996" x1="138.01" y1="35.9287" x2="127.08" y2="73.3236" gradientUnits="userSpaceOnUse">
<stop stop-color="#CF5C2B"/>
<stop offset="1" stop-color="#59173E"/>
</linearGradient>
<linearGradient id="paint6_linear_4084_2996" x1="175.847" y1="-27.8853" x2="111.272" y2="160.171" gradientUnits="userSpaceOnUse">
<stop stop-color="#CF5C2B"/>
<stop offset="1" stop-color="#59173E"/>
</linearGradient>
<linearGradient id="paint7_linear_4084_2996" x1="227.944" y1="-45.3023" x2="208.788" y2="1.07009" gradientUnits="userSpaceOnUse">
<stop stop-color="#CF5C2B"/>
<stop offset="1" stop-color="#59173E"/>
</linearGradient>
<linearGradient id="paint8_linear_4084_2996" x1="137.768" y1="-96.9877" x2="110.167" y2="-9.78055" gradientUnits="userSpaceOnUse">
<stop stop-color="#CF5C2B"/>
<stop offset="1" stop-color="#59173E"/>
</linearGradient>
<linearGradient id="paint9_linear_4084_2996" x1="170.26" y1="-86.704" x2="142.66" y2="0.503299" gradientUnits="userSpaceOnUse">
<stop stop-color="#CF5C2B"/>
<stop offset="1" stop-color="#59173E"/>
</linearGradient>
<linearGradient id="paint10_linear_4084_2996" x1="335.852" y1="-34.2686" x2="306.182" y2="52.6539" gradientUnits="userSpaceOnUse">
<stop stop-color="#CF5C2B"/>
<stop offset="1" stop-color="#59173E"/>
</linearGradient>
</defs>
</svg>
