<svg width="83" height="86" viewBox="0 0 83 86" fill="none" xmlns="http://www.w3.org/2000/svg">
<path d="M81.7684 12.8014C81.2912 6.43119 76.0729 1.43017 69.689 1.1764C51.7197 0.462182 33.8295 0.457621 16.0197 1.17943C14.7296 1.2311 13.45 1.48183 12.2359 1.92252C11.6341 2.14134 11.0475 2.40727 10.4853 2.71575C7.71961 4.23536 5.8414 6.87187 4.38258 9.59804C2.99062 12.1981 1.59867 14.947 1.18989 17.9042C0.892052 20.0559 0.802392 22.2305 0.753765 24.4005C0.711216 26.2711 0.328266 28.4958 1.06679 30.2662C1.27346 30.7631 1.55611 31.2296 1.90258 31.6399C1.9968 31.7523 2.98301 32.7705 3.10002 32.6595C2.2384 33.471 0.881411 33.7688 0.331315 34.8158C-0.276526 35.9723 0.126167 37.7502 0.186951 38.9887C0.296362 41.2301 -0.00147185 43.9608 0.826712 46.07C1.13975 46.8678 1.72479 47.6033 2.5317 47.892C1.36464 48.6184 0.916364 50.0863 0.708178 51.4449C0.361709 53.6984 0.413365 55.99 0.536453 58.2603C0.639786 60.1659 0.431616 62.5076 1.18382 64.2825C1.62147 65.3128 2.56512 66.2109 3.68355 66.2473C2.83865 66.4722 1.91778 66.7488 1.43454 67.4782C0.724889 68.548 0.857102 70.8244 0.957396 72.0507C1.22788 75.4136 2.63502 78.9649 5.01928 81.378C6.4553 82.8308 8.23628 83.934 10.1814 84.5601C11.1813 84.8822 12.2982 85.1512 13.3528 85.1497C32.2688 86.2347 50.4858 86.3258 67.8716 85.2363C67.9476 85.2317 68.0251 85.2256 68.1011 85.2196C70.2103 85.0494 72.2663 84.3549 74.0427 83.2031C75.7751 82.0801 77.2263 80.5407 78.2444 78.7445C79.4221 76.6688 79.9752 74.2237 80.5633 71.9306C80.7305 71.2818 80.8794 70.6268 81.0116 69.9703C81.4234 67.9174 82.2972 64.3387 81.2517 62.3663C81.0678 62.0198 80.7168 61.7371 80.3263 61.7447C80.8429 61.6992 81.2699 61.2919 81.4888 60.8224C81.9644 59.7981 81.896 58.4107 81.9902 57.3075C82.1787 55.1102 82.2516 52.9067 82.3276 50.7033C82.4294 47.7811 82.5039 44.8589 82.5464 41.9367C82.589 39.0677 82.6011 36.2002 82.5783 33.3312C82.5555 30.3573 82.7956 26.9899 82.3276 23.9932C82.2303 23.3672 82.0115 22.7578 81.6802 22.2168C81.5116 21.9418 81.2654 21.6561 80.9432 21.6652C81.4234 20.9677 81.7501 20.1669 81.9051 19.3341C82.2957 17.2371 81.9264 14.9166 81.7684 12.8014Z" fill="url(#paint0_linear_6009_1172)"/>
<path d="M82.6063 27.4686C82.5971 29.7024 82.5759 31.9256 82.5667 34.1594C82.5561 35.2232 82.5576 36.299 82.547 37.3734C82.547 37.9524 82.5364 38.5222 82.5364 39.1012C82.506 42.1358 82.4649 45.1705 82.3813 48.2051C82.351 49.7126 82.3084 51.2185 82.2461 52.726C82.2142 53.6316 82.2264 54.4644 81.9316 55.3184C81.5942 56.2666 81.6261 57.4154 81.5106 58.4062C81.4681 58.7223 81.4164 59.0596 81.1839 59.2815C80.9727 59.4927 80.646 59.5353 80.3512 59.5566C79.8558 59.6097 79.3497 59.6614 78.8559 59.7146C73.8397 60.2328 68.7931 60.6674 63.7768 60.099C65.3998 60.3407 67.0227 60.5823 68.6456 60.8239C72.4188 61.3922 76.1799 61.9484 79.953 62.5061C80.2478 62.5593 80.5745 62.611 80.7964 62.8115C81.1338 63.1063 81.1444 63.6124 81.1338 64.0546C81.1018 64.7293 81.0289 65.3827 80.924 66.0468C80.7447 67.3643 80.4925 68.6711 80.4408 70.0084C80.4302 70.2819 80.4727 70.557 80.4302 70.8305C80.2934 71.6632 79.6719 72.4747 79.1978 73.1388C76.9959 76.2266 73.4674 78.1991 69.6851 78.4316C52.5728 79.5135 34.64 79.4147 16.0096 78.3465C13.323 78.1899 10.7305 77.1581 8.66387 75.4197C7.42995 74.3772 6.29178 73.0506 5.5958 71.5857C5.27972 70.911 5.19463 70.1634 4.88919 69.4781C4.82536 69.3307 4.76305 69.1939 4.7205 69.0359C4.61565 68.5936 4.65669 68.0876 5.04723 67.7928C5.45752 67.4661 6.03801 67.4342 6.5638 67.4129C12.4857 67.2108 18.4076 66.8385 24.3295 66.6683C26.194 66.6151 28.0707 66.5832 29.9353 66.5817C29.2712 66.4768 28.6072 66.3932 27.9325 66.3188C24.8765 65.951 21.7887 65.8371 18.7115 65.7216C18.6583 65.7216 18.6173 65.711 18.5747 65.711C14.8654 65.5757 11.1667 65.4192 7.49987 64.8402C6.80389 64.7247 6.07751 64.5773 5.44536 64.2825C4.98188 64.0713 4.57006 63.7659 4.27526 63.3449C4.25398 63.313 4.23272 63.2705 4.21145 63.2401C3.789 62.576 3.62033 61.5852 3.75709 60.8376C3.92577 59.9729 3.81939 59.1311 3.77685 58.2239C3.69175 56.6541 3.60663 55.0737 3.53217 53.504C3.47899 52.6393 3.43643 51.7868 3.39388 50.9222C3.37261 50.4481 3.35134 49.9208 3.65678 49.5515C3.8984 49.2673 4.29959 49.161 4.66733 49.0667C5.82679 48.7719 6.98473 48.4863 8.16546 48.3069C8.69276 48.2112 9.21853 48.1489 9.74584 48.117C8.38579 47.8115 7.0379 47.5061 5.67786 47.2022C5.26756 47.108 4.85576 47.0122 4.48649 46.8132C4.40291 46.7706 4.31781 46.719 4.23271 46.6658C3.558 46.181 3.39997 45.517 3.2936 44.8012C3.26169 44.5596 3.22979 44.3165 3.18724 44.0748C3.0915 43.5156 3.01855 42.9579 2.96536 42.3896C2.86962 41.5265 2.82709 40.6618 2.78454 39.8078C2.69945 37.922 2.60369 35.4982 3.79354 33.9178C4.22511 33.3495 4.99403 33.2218 5.69001 33.1367C9.01946 32.7356 12.3489 32.3967 15.689 32.1323C18.482 31.9104 21.2735 31.7296 24.0757 31.602C18.5854 31.836 13.0753 31.5852 7.61687 30.8604C6.73094 30.7342 5.82527 30.5975 5.02444 30.1978C5.00316 30.1872 4.98188 30.1766 4.9606 30.1659C4.74938 30.0717 4.5503 29.9441 4.36035 29.7967C3.93942 29.4699 3.61271 29.0065 3.4334 28.5111C3.24344 27.9731 3.33767 27.5416 3.41213 27.0036C3.43341 26.803 3.41213 26.6131 3.41213 26.414C3.36958 25.2242 3.46379 24.0115 3.4957 22.8202C3.51697 22.2093 3.53674 21.5984 3.56865 20.9875C3.65222 18.3221 3.77683 15.6659 3.93487 13.0111C4.32237 6.56193 9.55739 1.43934 16.0157 1.18405C33.8224 0.460715 51.7142 0.46376 69.6805 1.17342C75.455 1.40288 80.4834 5.70031 81.5699 11.3791C81.9072 13.1281 82.0242 15.014 81.6884 16.7737C81.6048 17.2159 81.4985 17.649 81.3298 18.0699C81.2356 18.3024 81.0775 18.7978 80.8557 18.9862C80.845 19.0075 80.8238 19.0181 80.8131 19.0288C80.6657 19.123 80.4438 19.1442 80.2752 19.1762C79.2221 19.4299 78.1675 19.6518 77.1038 19.8417C74.9854 20.2216 72.8474 20.4861 70.6971 20.6775C66.3875 21.0589 62.0566 21.1228 57.7364 21.1987H57.6103C58.791 21.2717 59.9809 21.334 61.1616 21.4084C66.5152 21.7124 71.8566 22.036 77.2101 22.34C78.5064 22.4235 79.8543 22.5071 80.962 23.1712C80.9727 23.1712 80.9727 23.1818 80.9833 23.1818C82.5424 24.1179 82.6275 25.8472 82.6063 27.4686Z" fill="url(#paint1_linear_6009_1172)"/>
<path d="M82.6075 27.4686C82.5984 29.7024 82.5771 31.9256 82.568 34.1594C82.5574 35.2232 82.5589 36.299 82.5483 37.3734C82.5483 37.9524 82.5376 38.5222 82.5376 39.1012C74.2983 39.6422 66.0484 40.3609 57.7757 40.87C48.1551 41.4642 38.5253 42.11 28.9047 42.7254C23.7214 43.0537 18.579 43.4564 13.4154 44.0384C9.95985 44.4304 6.66079 45.0003 3.29943 44.8012C3.26752 44.5596 3.2356 44.3164 3.19305 44.0748C3.09731 43.5156 3.02438 42.9579 2.97119 42.3896C6.38422 41.6723 9.79877 41.7863 13.4124 41.6693C18.2599 41.5098 23.0436 41.1709 27.8684 40.7256C37.4981 39.826 47.1293 38.8854 56.7484 37.7852C62.4804 37.1196 68.2229 36.5376 73.9655 35.8918C73.7756 35.8811 73.5856 35.8705 73.3972 35.8599C63.9878 35.3478 54.735 33.6124 45.3575 32.7735C36.053 31.9454 26.7378 31.222 17.4013 30.6659C13.6297 30.4349 9.29881 30.5002 5.03025 30.1963C5.00897 30.1857 4.98771 30.175 4.96644 30.1644C4.75521 30.0702 4.55614 29.9425 4.36619 29.7951C3.94526 29.4684 3.61854 29.0049 3.43923 28.5095C3.24928 27.9716 3.3435 27.54 3.41796 27.0021C3.43924 26.8015 3.41796 26.6116 3.41796 26.4125C3.37542 25.2226 3.46962 24.01 3.50153 22.8186C3.52281 22.2078 3.54257 21.5969 3.57448 20.986C8.31564 20.7201 13.1951 21.0346 17.3983 21.0756C26.7348 21.1562 36.0393 21.606 45.3529 22.15C54.7 22.694 64.0456 22.4691 73.3926 22.9083C75.9213 23.0238 78.4605 23.1165 80.9907 23.1788C82.5437 24.1179 82.6288 25.8472 82.6075 27.4686ZM51.7003 49.3448C35.8007 50.1092 19.0471 49.4102 3.53801 53.504C3.61247 55.0737 3.69756 56.6541 3.78265 58.2239C3.8252 59.1295 3.93157 59.9729 3.7629 60.8376C3.62613 61.5852 3.7948 62.576 4.21725 63.2401C8.90675 64.4709 13.7118 65.2277 18.5806 65.711C18.6231 65.711 18.6641 65.7216 18.7173 65.7216C21.7732 66.0255 24.8504 66.2033 27.9383 66.3188C35.904 66.6105 43.923 66.4282 51.7094 66.4996C61.4455 66.5908 71.1923 66.3872 80.9284 66.0453C81.0332 65.3812 81.1077 64.7278 81.1381 64.0531C81.1487 63.6109 81.1381 63.1048 80.8007 62.81C80.5788 62.6094 80.2521 62.5578 79.9573 62.5046C76.1857 61.9469 72.4231 61.3907 68.65 60.8224C67.027 60.5808 65.4041 60.3392 63.7812 60.0975C68.7974 60.6644 73.844 60.2313 78.8602 59.7131C79.3556 59.6599 79.8616 59.6067 80.3555 59.555C80.6503 59.5338 80.977 59.4912 81.1882 59.28C81.4207 59.0581 81.4724 58.7208 81.5149 58.4047C81.6304 57.4139 81.5985 56.2651 81.9359 55.3169C82.2307 54.4629 82.22 53.6316 82.2504 52.7244C82.3127 51.217 82.3553 49.7111 82.3856 48.2036C72.1633 48.5364 61.9212 48.857 51.7003 49.3448Z" fill="url(#paint2_linear_6009_1172)"/>
<path d="M4.27937 63.3465C3.81589 62.6824 3.61531 61.6293 3.76271 60.8391C3.93139 59.9744 3.82502 59.1326 3.78247 58.2254C3.64418 55.791 3.52718 53.3566 3.39953 50.9237C3.37825 50.4496 3.35699 49.9223 3.66243 49.553C3.90404 49.2689 4.30521 49.1625 4.67295 49.0683C5.83241 48.7735 6.99035 48.4878 8.17108 48.3085C7.50701 48.8251 6.86422 49.2369 6.08466 49.626C5.81114 49.7627 5.52698 49.8995 5.32639 50.132C5.11517 50.3751 5.03157 50.7125 4.95711 51.0286C4.29457 54.0845 4.65472 57.2665 5.02398 60.3741C5.18202 61.6703 5.33094 62.9772 5.44643 64.2825C4.98599 64.0728 4.57417 63.7674 4.27937 63.3465Z" fill="#EB924D"/>
<path d="M3.19749 44.0748C2.95435 42.6737 2.85862 41.2194 2.79479 39.8077C2.7097 37.9219 2.61396 35.4981 3.80381 33.9177C4.23538 33.3494 5.0043 33.2218 5.70028 33.1367C9.02973 32.7355 12.3592 32.3966 15.6992 32.1322C12.5385 33.1868 8.9036 33.199 5.83704 34.4967C5.27782 34.7292 4.7095 35.0346 4.39342 35.5513C4.1822 35.8993 4.09862 36.3096 4.03631 36.7108C3.84636 37.9644 3.70046 39.1664 3.77492 40.4201C3.82811 41.2316 3.89193 42.0431 3.96487 42.8545C4.09252 44.1827 4.27184 45.4986 4.49371 46.8161C4.41013 46.7736 4.32502 46.7219 4.23992 46.6687C3.34487 46.0244 3.36616 45.0443 3.19749 44.0748Z" fill="#EB924D"/>
<path d="M68.1006 60.5823C68.2374 60.6461 68.3741 60.7084 68.5124 60.7616C68.3635 60.7297 68.2267 60.6765 68.1006 60.5823Z" fill="#EB924D"/>
<path d="M81.1361 64.0545C81.0525 66.0665 80.5161 68.0055 80.4431 70.0083C80.4325 70.2819 80.4751 70.5569 80.4325 70.8305C80.2957 71.6632 79.6742 72.4747 79.2001 73.1387C76.9982 76.2266 73.4697 78.199 69.6874 78.4315C52.5751 79.5135 34.6423 79.4147 16.012 78.3464C13.3253 78.1899 10.7329 77.1581 8.6662 75.4196C7.43228 74.3772 6.2941 73.0506 5.59812 71.5857C5.28205 70.911 5.19693 70.1633 4.89149 69.478C4.82767 69.3306 4.76537 69.1938 4.72283 69.0358C4.61797 68.5936 4.659 68.0876 5.04954 67.7928C5.45983 67.466 6.04032 67.4341 6.5661 67.4129C12.488 67.2107 18.4099 66.8385 24.3318 66.6683C19.1271 66.9646 13.9423 67.694 8.81207 68.6133C8.10545 68.7288 7.34718 68.7927 6.66184 68.9933C6.55699 69.0252 6.43997 69.0358 6.35639 69.13C6.23027 69.2668 6.26217 69.4567 6.28345 69.636C6.35791 70.2469 6.69527 70.7529 7.06454 71.2377C8.26654 72.8074 9.52022 74.4395 11.2708 75.3665C15.4968 77.5988 19.8064 77.2705 24.5901 77.152C25.5779 77.1277 26.5352 77.1444 27.4971 76.9712C27.994 76.8815 28.5639 76.9742 29.0669 76.9879C30.1868 77.0183 31.3052 77.0502 32.4252 77.0806C34.6636 77.1429 36.9019 77.2052 39.1403 77.2675C43.3268 77.383 47.5133 77.5 51.6998 77.6155C55.6873 77.7264 59.6854 77.8191 63.6667 77.4939C67.6025 77.1717 71.5367 76.4241 75.1762 74.8513C75.4771 74.7206 75.8129 74.6066 76.0758 74.4106C76.2688 74.2678 76.4192 74.09 76.6229 73.9578C77.2277 73.5642 77.8081 73.1843 78.337 72.6859C78.6956 72.3485 79.1895 71.9276 79.3794 71.452C79.4843 71.1997 79.5375 70.9049 79.6317 70.6405C79.8946 69.9126 80.0207 69.1543 80.0739 68.3854C80.1271 67.542 80.0845 66.6895 79.9888 65.8462C79.9462 65.4769 79.9994 64.7718 79.7776 64.4557C79.6514 64.2764 79.3566 64.129 79.156 64.0348C78.6394 63.7719 78.0604 63.667 77.4906 63.5607C74.4559 62.9923 71.4729 62.0775 68.6495 60.8239C72.4227 61.3922 76.1837 61.9484 79.9569 62.506C80.2517 62.5592 80.5784 62.6109 80.8002 62.8115C81.1361 63.1063 81.1467 63.6123 81.1361 64.0545Z" fill="#EB924D"/>
<path d="M3.5097 28.4944C3.3471 27.8759 3.3623 27.2225 3.37902 26.5812C3.45955 23.4645 3.54008 20.3478 3.7118 17.2356C3.86984 14.3772 3.81362 11.3669 4.98068 8.70913C6.89994 4.34331 11.2597 1.37248 16.0236 1.18405C33.8303 0.460715 51.7222 0.46376 69.6884 1.17342C75.4629 1.40288 80.4913 5.70031 81.5778 11.3791C81.9152 13.1281 82.0321 15.014 81.6963 16.7737C81.6127 17.2159 81.5064 17.649 81.3377 18.0699C81.2435 18.3024 81.0855 18.7978 80.8636 18.9862C80.4943 16.1309 81.1873 12.9899 80.1646 10.3047C79.5522 8.67114 78.6769 7.07099 77.2864 6.00727C72.7033 2.459 65.9471 2.70214 60.4416 2.60336C45.2486 2.32984 30.1392 1.85267 14.9903 3.22791C14.2943 3.29174 13.6105 3.03797 12.9358 3.15498C11.439 3.40875 9.98625 4.43145 8.89061 5.43286C7.38469 6.81418 6.22524 8.58452 5.50951 10.5023C5.30892 11.0615 5.13112 11.6298 4.98372 12.2103C3.51578 17.8526 4.14945 24.3853 4.84543 30.1006C4.19504 29.8893 3.74067 29.2724 3.5416 28.6174C3.53097 28.5764 3.52034 28.5354 3.5097 28.4944Z" fill="#EB924D"/>
<path d="M82.6072 27.4686C82.5981 29.7025 82.5768 31.9256 82.5677 34.1594C82.557 35.2232 82.5586 36.2991 82.5479 37.3734C82.5191 42.4945 82.4461 47.6155 82.2486 52.726C82.2166 53.6316 82.2288 54.4644 81.934 55.3184C81.5966 56.2666 81.6286 57.4154 81.5131 58.4062C81.4705 58.7223 81.4188 59.0597 81.1863 59.2815C80.9751 59.4927 80.6484 59.5353 80.3536 59.5566C79.8582 59.6098 79.3522 59.6614 78.8583 59.7146C79.1425 59.514 79.375 59.2511 79.5421 58.9138C79.7837 58.4184 79.8369 57.8607 79.8795 57.3121C80.6028 48.2811 80.6515 39.241 80.3962 30.2009C80.3643 29.0095 80.3217 27.809 80.2685 26.6177C80.2579 26.3441 80.3111 26.0797 80.2791 25.8168C80.2366 25.4582 80.0573 25.1315 79.8263 24.8473C79.3097 24.2258 78.5407 23.8368 77.7809 23.583C72.2587 21.7306 66.0845 23.0815 60.5 21.4084H61.1747C66.5283 21.7124 71.8697 22.0361 77.2232 22.34C78.5194 22.4236 79.8673 22.5071 80.9751 23.1712C82.5434 24.0966 82.6285 25.8366 82.6072 27.4686Z" fill="#EB924D"/>
<defs>
<linearGradient id="paint0_linear_6009_1172" x1="79.6153" y1="-41.1865" x2="56.3204" y2="10.6556" gradientUnits="userSpaceOnUse">
<stop stop-color="#CF5C2B"/>
<stop offset="1" stop-color="#59173E"/>
</linearGradient>
<linearGradient id="paint1_linear_6009_1172" x1="69.7968" y1="-22.7456" x2="-12.6291" y2="167.76" gradientUnits="userSpaceOnUse">
<stop stop-color="#CF5C2B"/>
<stop offset="1" stop-color="#59173E"/>
</linearGradient>
<linearGradient id="paint2_linear_6009_1172" x1="60.7377" y1="0.792566" x2="-21.6879" y2="191.297" gradientUnits="userSpaceOnUse">
<stop stop-color="#CF5C2B"/>
<stop offset="1" stop-color="#59173E"/>
</linearGradient>
</defs>
</svg>
