<?xml version="1.0" encoding="utf-8"?><svg viewBox="0 0 52 52" xmlns="http://www.w3.org/2000/svg" xmlns:xlink="http://www.w3.org/1999/xlink"><style>:root>svg{display:none}:root>svg:target{display:block}</style><svg viewBox="0 0 10 16" id="arrow" xmlns="http://www.w3.org/2000/svg"><path d="M1.625 1.25L8.375 8l-6.75 6.75"/></svg><svg viewBox="0 0 52 52" id="circle-coins" xmlns="http://www.w3.org/2000/svg"><path d="M52 26c0 14.36-11.64 26-26 26S0 40.36 0 26 11.64 0 26 0s26 11.64 26 26zM7.066 26c0 10.457 8.477 18.934 18.934 18.934S44.934 36.457 44.934 26 36.457 7.066 26 7.066 7.066 15.543 7.066 26z"/></svg><svg viewBox="0 0 52 52" id="circle-energy" xmlns="http://www.w3.org/2000/svg"><path d="M26 0A26 26 0 111.885 16.28c.628-1.557 2.493-2.094 3.966-1.29 1.473.806 1.99 2.648 1.419 4.226A19.92 19.92 0 1026 6.08V0z"/></svg><svg viewBox="0 0 24 24" id="copy" xmlns="http://www.w3.org/2000/svg"><path d="M19.078 6H8.672A2.672 2.672 0 006 8.672v10.406a2.672 2.672 0 002.672 2.672h10.406a2.672 2.672 0 002.672-2.672V8.672A2.672 2.672 0 0019.078 6z"/><path d="M17.977 6L18 4.875a2.633 2.633 0 00-2.625-2.625H5.25a3.009 3.009 0 00-3 3v10.125A2.633 2.633 0 004.875 18H6"/></svg><svg viewBox="0 0 12 12" id="energy" xmlns="http://www.w3.org/2000/svg"><path fill-rule="evenodd" clip-rule="evenodd" d="M7.307.798a.375.375 0 01.18.426l-.996 3.651h3.634a.375.375 0 01.274.631l-5.25 5.625a.375.375 0 01-.636-.355l.996-3.651H1.875a.375.375 0 01-.274-.631L6.851.869a.375.375 0 01.456-.071z"/></svg><svg viewBox="0 0 18 18" id="search" xmlns="http://www.w3.org/2000/svg"><path fill-rule="evenodd" clip-rule="evenodd" d="M7.75 2.125a5.625 5.625 0 100 11.25 5.625 5.625 0 000-11.25zM.875 7.75a6.875 6.875 0 1112.158 4.4l3.909 3.908a.625.625 0 11-.884.884l-3.908-3.909A6.876 6.876 0 01.875 7.75z"/></svg><svg viewBox="0 0 16 15" id="star" xmlns="http://www.w3.org/2000/svg"><path d="M8 1.1l1.953 3.826.115.227.252.04 4.242.675-3.035 3.04-.18.18.04.25.669 4.244-3.83-1.948L8 11.52l-.227.115-3.829 1.948.67-4.243.04-.252-.18-.18-3.036-3.04 4.242-.674.252-.04.115-.227L8 1.1z"/></svg><svg viewBox="0 0 16 15" id="star-filled" xmlns="http://www.w3.org/2000/svg"><path d="M8 0l2.398 4.7 5.21.828L11.88 9.26l.822 5.211L8 12.08l-4.702 2.392.822-5.211L.392 5.528l5.21-.829L8 0z"/></svg><svg viewBox="0 0 21 21" id="sword" xmlns="http://www.w3.org/2000/svg"><g clip-path="url(#ia)"><path fill-rule="evenodd" clip-rule="evenodd" d="M11.815 7.388L9.781 9.386l-.955.936-1.057 1.034-2.736 2.685c-1.038-.955-2.643-1.96-2.643-1.96l-.563.553 2.33 2.376-2.423 2.957a1.047 1.047 0 10.642.655l3.003-2.366 2.33 2.375.563-.553s-.978-1.624-1.915-2.68l2.736-2.686 1.057-1.033.955-.937 2.034-1.997.955-.937 1.057-1.033 2.99-2.935v-.004l.004-.005.005-.005.004-.009.005-.009.01-.01.008-.008.01-.014.009-.014.014-.014.014-.018.013-.019.014-.018.019-.023.018-.024.018-.023.019-.027.018-.028.019-.028.023-.027.023-.033.023-.032.023-.032.023-.037.023-.037.023-.037.028-.037.028-.041.027-.042.028-.041.028-.042.027-.046.028-.046.028-.046.027-.046.028-.051.032-.051.033-.05.032-.051c.01-.019.019-.037.032-.056l.033-.055c.009-.019.023-.037.032-.056.01-.018.023-.036.032-.055.01-.018.023-.037.032-.06.01-.018.024-.041.033-.06l.032-.06.032-.06c.01-.018.023-.041.033-.064.009-.023.023-.042.032-.065.01-.023.023-.042.032-.065.01-.023.023-.041.033-.064.009-.023.023-.046.032-.065.01-.023.023-.046.032-.069.01-.023.023-.046.032-.07.01-.022.024-.045.033-.068a.467.467 0 01.032-.07.457.457 0 01.032-.069.878.878 0 01.033-.074c.009-.023.018-.05.032-.073.01-.024.018-.051.028-.074l.027-.074c.01-.023.019-.05.028-.074l.028-.078-.102-.102-.078.028-.079.028-.073.027c-.023.01-.051.019-.074.028-.023.01-.051.018-.074.028L19.1 1.2a.77.77 0 01-.074.028l-.069.028-.07.027c-.022.01-.045.019-.068.033a.478.478 0 00-.07.032c-.023.01-.046.018-.069.032-.023.01-.046.019-.064.032a.421.421 0 00-.065.033.417.417 0 00-.064.032.418.418 0 00-.065.032.247.247 0 00-.06.033c-.019.009-.042.018-.06.032-.018.01-.042.018-.06.032-.018.01-.042.019-.06.033a.82.82 0 00-.06.032l-.055.032-.056.032a.345.345 0 00-.055.033l-.055.027c-.019.01-.037.019-.051.028l-.051.028-.05.027-.051.028-.047.028c-.013.01-.032.018-.046.028l-.046.027-.046.028-.042.028-.041.027-.042.028-.037.023-.036.023-.037.023-.037.023-.032.023-.033.023-.032.023-.032.019-.028.018-.028.019-.027.018-.023.019-.024.018-.023.014-.018.014-.019.014-.018.014-.014.013-.014.01-.014.009-.013.009-.01.01-.009.004-.01.004-.004.005-.004.005h-.005l-2.99 2.934-1.056 1.033-.955.937.01-.014zm-6.187 7.41l.01.018c-.01 0-.014-.005-.024-.005 0-.009-.004-.013-.004-.023l.018.01z"/></g><defs><clipPath id="ia"><path transform="matrix(1 0 0 -1 .046 20.625)" d="M0 0h20v20H0z"/></clipPath></defs></svg><svg viewBox="0 0 12 12" id="ton" xmlns="http://www.w3.org/2000/svg"><path d="M10.054 0H1.946C.456 0-.484 1.604.261 2.907l5.003 8.668a.85.85 0 001.472 0l5.003-8.668C12.484 1.604 11.544 0 10.054 0zm-4.8 8.969l-1.09-2.11-2.626-4.697a.471.471 0 01.169-.629.43.43 0 01.23-.062h3.309l.009 7.498zm5.199-6.807L7.827 6.86l-1.09 2.109V1.48h3.317a.451.451 0 01.399.682z"/></svg><svg viewBox="0 0 21 21" id="wallet" xmlns="http://www.w3.org/2000/svg"><path d="M4.116 4.632h12.5c.146 0 .292.01.437.028a2.579 2.579 0 00-3.028-2.17L3.745 4.245h-.012a2.578 2.578 0 00-1.604 1.02 3.42 3.42 0 011.987-.633zm12.5.938h-12.5a2.503 2.503 0 00-2.5 2.5v7.5a2.503 2.503 0 002.5 2.5h12.5a2.503 2.503 0 002.5-2.5v-7.5a2.503 2.503 0 00-2.5-2.5zm-1.856 7.5a1.25 1.25 0 110-2.5 1.25 1.25 0 010 2.5z"/><path d="M1.635 10.706V6.82c0-.846.47-2.265 2.096-2.573 1.38-.259 2.748-.259 2.748-.259s.899.625.156.625c-.742 0-.722.957 0 .957.723 0 0 .918 0 .918l-2.91 3.301-2.09.918z"/></svg></svg>