<svg width="390" height="732" viewBox="0 0 390 732" fill="none" xmlns="http://www.w3.org/2000/svg">
<g opacity="0.7">
<path d="M-42 2V581H434V2H-42Z" fill="url(#paint0_linear_6038_3315)"/>
<path d="M-41.9551 419.321V531.083H434.201V419.321C434.201 419.321 309.545 391.819 230.493 404.206C144.576 417.685 47.0081 419.749 -4.88986 419.749H-4.99031C-27.9594 419.749 -41.9551 419.321 -41.9551 419.321Z" fill="#7B8707"/>
<path d="M434.234 242V732H-41.9551V242H434.234Z" fill="#161616"/>
<path opacity="0.1" fill-rule="evenodd" clip-rule="evenodd" d="M434.234 267.355H405.037L417.694 365.959H434.234V368.977H418.096L422.214 401.174L434.234 494.747V501.79L424.256 423.712H390.74L403.765 543.244H434.234V546.866H404.133L416.02 656.135L418.129 675.454L418.832 681.893H434.234V686.119H419.267L424.29 732H423.252L417.125 675.454L415.049 656.135L412.47 632.39H374.535L376.644 656.135L378.352 675.454L383.374 732H382.37L378.285 686.119H339.78L342.961 732H341.923L338.039 675.454L336.733 656.135L335.092 632.39H297.592L298.764 656.135L299.735 675.454L302.514 732H301.509L299.232 686.119H260.727L262.1 732H261.062L259.422 675.454L258.852 656.135L258.149 632.39H220.649L220.883 656.135L221.084 675.454L221.653 732H220.649L220.18 686.119H181.675L181.206 732H180.202L180.771 675.454L180.972 656.135L181.206 632.39H143.706L143.003 656.135L142.434 675.454L140.793 732H139.755L141.128 686.119H102.623L100.346 732H99.3414L102.12 675.454L103.091 656.135L104.263 632.39H66.3276L64.6869 656.135L63.3476 675.454L59.4637 732H58.4592L61.64 686.119H23.1016L19.0502 732H18.0122L23.0346 675.454L24.7757 656.135L26.8851 632.39H-10.6154L-13.1935 656.135L-15.2695 675.454L-21.3968 732H-22.4347L-17.4123 686.119H-41.9551V681.893H-16.9771L-16.2739 675.454L-14.1645 656.135L-2.27822 546.866H-38.1381L-41.9551 576.649V569.404L-32.8143 498.168H-41.9551V494.747H-32.3791L-20.3588 401.174L-16.2405 368.977H-41.9551V365.959H-15.8387L-3.18225 267.355H-33.6849L-41.9551 323.499V317.864L-39.9796 304.583H-41.9551V301.766H-39.5778L-30.7049 242H-29.9348L-33.3166 264.739H-2.84742L0.0655615 242H0.869141L-6.79837 301.766H24.3739L30.8695 242H31.6396L29.1619 264.739H59.5976L61.64 242H62.4436L57.1199 301.766H88.2922L92.444 242H93.2141L91.6404 264.739H122.444L123.583 242H124.353L121.406 301.766H152.579L154.353 242H155.123L154.454 264.739H184.923L185.157 242H185.927L185.358 301.766H216.497L215.928 242H216.698L216.932 264.739H247.401L246.732 242H247.502L249.276 301.766H280.449L277.502 242H278.272L279.411 264.739H309.88L308.306 242H309.076L313.195 301.766H344.367L339.077 242H339.847L341.889 264.739H372.693L370.215 242H370.986L377.481 301.766H408.654L400.986 242H401.79L404.703 264.739H434.234V267.355ZM434.234 253.269V258.501L431.79 242H432.56L434.234 253.269ZM350.863 365.959H383.642L372.995 267.355H342.124L350.863 365.959ZM313.396 304.583L320.059 401.174L321.398 420.694H354.847L353.139 401.174L344.601 304.583H313.396ZM35.7245 543.445H71.5174L79.8211 423.712H46.3385L35.7245 543.445ZM47.4434 401.174L50.3229 369.179H17.8783L14.3961 401.174L4.25088 494.949H39.1063L47.4434 401.174ZM75.7697 494.747H111.027L115.681 401.174L117.255 368.977H84.4417L82.2318 401.174L75.7697 494.747ZM109.554 543.244H145.346L148.896 423.712H115.413L109.554 543.244ZM147.69 494.546H182.546L183.483 400.973L183.818 368.776H151.373L150.436 400.973L147.69 494.546ZM182.981 543.043H218.774L217.635 423.511H184.119L182.981 543.043ZM219.209 494.546H254.064L251.319 400.772L250.381 368.575H217.937L218.272 400.772L219.209 494.546ZM256.408 543.244H292.201L286.342 423.511H252.859L256.408 543.244ZM290.728 494.747H325.583L319.155 400.973L316.945 368.977H284.5L286.107 400.973L290.728 494.747ZM329.836 543.445H365.628L355.048 423.914H321.565L329.836 543.445ZM284.333 365.959H316.744L309.98 267.556H279.478L284.333 365.959ZM249.276 304.382L252.156 400.973L252.725 420.493H286.174L285.203 400.973L280.482 304.382H249.276ZM216.899 267.355L217.87 365.959H250.281L247.368 267.355H216.899ZM184.354 400.973L184.153 420.493H217.602L217.401 400.973L216.463 304.382H185.258L184.354 400.973ZM151.474 365.959H183.851L184.856 267.355H154.353L151.474 365.959ZM121.273 304.583L116.518 400.973L115.58 420.493H149.03L149.599 400.973L152.478 304.583H121.273ZM84.6426 365.959H117.422L122.31 267.355H91.4395L84.6426 365.959ZM56.852 304.583L48.314 401.174L46.5729 420.694H80.022L81.3613 401.174L88.0578 304.583H56.852ZM18.1796 365.959H50.5908L59.3632 267.556H28.8606L18.1796 365.959ZM-22.0329 420.493H11.4162L13.5256 400.973L24.0391 304.382H-7.20016L-19.5217 400.973L-22.0329 420.493ZM-1.94339 543.244L11.0478 423.712H-22.4347L-37.7363 543.244H-1.94339ZM27.1865 628.365L38.7714 497.967H3.84909L-10.2471 628.365H27.1865ZM71.2495 546.866H35.3897L25.7132 656.135L23.9721 675.454L23.4364 681.893H61.8744L62.3097 675.454L63.649 656.135L71.2495 546.866ZM104.431 628.365L110.859 497.967H75.5353L66.562 628.365H104.431ZM145.246 546.866H109.386L104.062 656.135L103.091 675.454L102.79 681.893H141.228L141.429 675.454L141.998 656.135L145.246 546.866ZM182.546 497.967H147.623L143.806 628.365H181.24L182.546 497.967ZM220.113 681.692L220.046 675.454L219.879 656.135L218.841 546.866H182.947L181.909 656.135L181.742 675.454L181.675 681.692H220.113ZM257.982 628.365L254.165 497.967H219.243L220.548 628.365H257.982ZM292.402 546.866H256.542L259.79 656.135L260.359 675.454L260.56 681.692H298.998L298.697 675.454L297.726 656.135L292.402 546.866ZM334.824 628.365L325.851 497.967H290.929L297.391 628.365H334.824ZM365.997 546.866H330.137L337.704 655.934L339.043 675.454L339.478 681.692H377.916L377.347 675.454L375.64 655.934L365.997 546.866ZM397.939 498.168H362.615L374.166 628.566H412.035L397.939 498.168ZM387.459 401.174L383.977 368.977H351.13L354.01 401.174L362.314 494.747H397.571L387.459 401.174ZM409.022 304.583H377.816L388.33 401.174L390.439 420.694H423.888L421.377 401.174L409.022 304.583Z" fill="#666666"/>
<path opacity="0.1" d="M434.234 630.981V694.973C402.794 696.18 369.713 696.985 341.621 696.985C333.652 696.985 325.817 696.784 318.05 696.784C194.8 695.174 98.4038 680.686 98.4038 662.977C98.4038 647.684 171.932 634.604 272.714 630.378C294.545 629.573 317.681 628.969 341.621 628.969C369.713 628.969 402.794 629.774 434.234 630.981Z" fill="#666666"/>
<path opacity="0.1" d="M434.234 389.906V732H342.224L318.049 696.784L272.714 630.378L35.7578 283.856L359.099 281.844L434.234 389.906Z" fill="#666666"/>
<path opacity="0.1" d="M434.234 385.277V732H-41.9551V423.914C57.7226 446.854 366.03 546.867 366.03 546.867L434.234 385.277Z" fill="#666666"/>
<g opacity="0.5">
<path d="M-149.79 264.528L40.58 282.838L77.032 284.426L107.13 285.764L200.852 289.944L254.359 292.369C254.359 292.369 420.149 309.257 431.102 311.598C442.054 313.855 564.954 335.844 564.954 335.844V100.745C564.954 100.745 561.275 98.6546 554.838 95.1431C542.966 88.7055 522.148 77.3351 498.32 64.6271C448.993 38.375 387.042 6.27042 366.976 0C336.962 21.9883 302.683 52.6715 279.776 73.9909C264.141 88.6219 253.691 98.9054 253.691 98.9054L90.9941 55.7649L90.9105 55.8485C89.4892 56.601 56.2978 73.9909 25.531 96.8152C13.0738 106.012 1.03456 116.045 -8.32926 126.328C-118.605 120.643 -141.513 117.549 -141.513 117.549C-141.513 117.549 -151.462 129.003 -164.839 144.136C-178.634 159.687 -196.024 179.167 -209.902 194.132C-216.507 201.239 -222.36 207.342 -226.623 211.522C-248.528 232.842 -149.79 264.528 -149.79 264.528Z" fill="url(#paint1_linear_6038_3315)"/>
<path opacity="0.5" d="M-8.32935 126.328L75.527 83.6055L83.9712 112.115L95.5924 83.6055L131.626 105.176L124.102 83.6055L253.691 98.9054L90.9941 55.7649L90.9104 55.8485C89.4891 56.6009 56.2978 73.9909 25.5309 96.8152C13.0737 106.012 1.03448 116.045 -8.32935 126.328Z" fill="#CEE1F3"/>
<path opacity="0.5" d="M279.776 73.9909L353.432 35.7832L380.103 64.6271L386.289 35.7832L498.321 64.6271C448.994 38.375 387.042 6.27042 366.977 0C336.962 21.9883 302.684 52.6715 279.776 73.9909Z" fill="#CEE1F3"/>
<path opacity="0.2" d="M107.131 285.764L200.853 289.944L253.691 98.9054L107.131 285.764Z" fill="url(#paint2_linear_6038_3315)"/>
</g>
</g>
<defs>
<linearGradient id="paint0_linear_6038_3315" x1="271.318" y1="581.03" x2="271.318" y2="2.03258" gradientUnits="userSpaceOnUse">
<stop offset="0.008" stop-color="#DE7B7B"/>
<stop offset="0.994" stop-color="#601C1F"/>
</linearGradient>
<linearGradient id="paint1_linear_6038_3315" x1="238.552" y1="335.816" x2="238.552" y2="-0.0292662" gradientUnits="userSpaceOnUse">
<stop stop-color="#947966"/>
<stop offset="1" stop-color="#805254"/>
</linearGradient>
<linearGradient id="paint2_linear_6038_3315" x1="323.365" y1="102.582" x2="80.3897" y2="54.0782" gradientUnits="userSpaceOnUse">
<stop stop-color="#3F2B24"/>
<stop offset="1" stop-color="#805254"/>
</linearGradient>
</defs>
</svg>
